<?xml version="1.0" encoding="utf-8"?>
<!-- Generator: Adobe Illustrator 19.0.0, SVG Export Plug-In . SVG Version: 6.00 Build 0)  -->
<svg version="1.1" id="Layer_1" xmlns="http://www.w3.org/2000/svg" xmlns:xlink="http://www.w3.org/1999/xlink" x="0px" y="0px"
	 viewBox="-11 0 176 200" style="enable-background:new -11 0 176 200;" xml:space="preserve">
<style type="text/css">
	.st0{fill:#FFFFFF;}
	.st1{fill:#FFBDBB;}
	.st2{fill:#5867DD;}
	.st3{fill:#FF5A54;}
	.st4{font-family:'Rubik-Medium';}
	.st5{font-size:34px;}
</style>
<path id="XMLID_2092_" class="st0" d="M147,61.2v77.6c0,0.8-1.3,2.9-2,3.3l-66.1,38.8c-0.2,0.1-0.9,0.3-1.9,0.3s-1.7-0.2-1.9-0.3
	L9,142.1c-0.7-0.4-1.9-2.5-1.9-3.3V61.2c0-0.8,1.2-2.9,1.9-3.3l66-38.8c0.2-0.1,0.9-0.3,1.9-0.3s1.7,0.2,1.9,0.3L145,57.9
	C145.7,58.3,147,60.4,147,61.2z"/>
<path id="XMLID_12_" class="st1" d="M148.8,50.2L83,11.3c-1.6-1-4-1.5-6-1.5l0,0c-3,0-4.8,0.5-6.4,1.5L4.4,50.2c-3.4,2-6.4,7-6.4,11
	v20.1V121v17.8c0,4,3,9.1,6.3,11l66.1,38.8c1.6,1,3.9,1.5,6.3,1.5s4.6-0.5,6.3-1.5l65.9-38.8c3.4-2,6.2-7,6.2-11V121V61.2
	C155,57.2,152.2,52.2,148.8,50.2z M147,121.1v17.8c0,0.8-1.4,2.9-2.1,3.3L78.7,181c-0.2,0.1-1,0.3-2,0.3s-1.7-0.2-1.9-0.3l-66-38.8
	c-0.7-0.4-1.8-2.5-1.8-3.3v-17.8V81.3V61.2c0-0.8,1.1-2.9,1.8-3.3L75,19.1c0.2-0.1,1-0.3,2-0.3l0,0c1,0,1.5,0.2,1.7,0.3l66.2,38.8
	c0.7,0.4,2.1,2.5,2.1,3.3V121.1z"/>
<path id="XMLID_4_" class="st2" d="M153.8,41.5l-66-38.8c-3.1-1.8-7-2.8-11.1-2.8s-8,1-11.1,2.8L-0.1,41.6
	C-6.6,45.4-11,53.6-11,61.2v77.5c0,7.6,4.4,15.9,10.8,19.7l65.9,38.9c3.1,1.8,7,2.8,11,2.8s7.9-1,11-2.8l66.1-38.9
	c6.4-3.8,11.1-12,11.1-19.7v-17.8l0.1-40V61.2C165,53.6,160.3,45.3,153.8,41.5z M155.1,81.3L155.1,81.3l-0.1,57.5
	c0,4-2.8,9.1-6.1,11l-66,38.8c-1.6,1-3.8,1.5-6.2,1.5c-2.4,0-4.6-0.5-6.2-1.5L4.3,149.9c-3.4-2-6.3-7-6.3-11V61.2c0-4,3-9,6.3-11
	l66.1-38.8c1.6-1,3.9-1.5,6.3-1.5s4.6,0.5,6.3,1.5l65.9,38.8c3.4,2,6.2,7,6.2,11V81.3L155.1,81.3z"/>
<g id="XMLID_5_">
	<g id="XMLID_777_">
		<path id="XMLID_2431_" class="st3" d="M73,110.8c-0.4,1-0.9,2-1.3,3.1c0,0.1-0.1,0.1-0.1,0.2l0,0c0,0,0,0.1,0,0.2
			c-0.8,2.2-1.6,4.4-2.4,6.6c-0.3,0.8-0.7,1.6-0.8,2.5c-0.4,0.8-0.6,1.6-0.9,2.4c-0.6,1.5-1.1,2.9-1.7,4.4c-0.3,0.8-0.7,1.5-0.8,2.3
			c0,0,0,0.1-0.1,0.1c-1.1-0.7-2.3-1.1-3.5-1.4c0.7-2,1.5-4,2.2-6c0.2-0.6,0.4-1.3,0.7-1.9c0.5-0.9,0.7-1.9,1.1-2.8
			c0.5-1.4,1-2.8,1.6-4.2c0.7-2,1.5-3.9,2.2-5.9c0.1-0.3,0.3-0.5,0.6-0.4c1,0.1,2,0.3,3.1,0.3C73.3,110.3,73.1,110.5,73,110.8z"/>
		<path id="XMLID_2426_" class="st3" d="M61.6,91.3c-1.2,1.1-2.3,2.2-3,3.7c-0.2,0.3-0.4,0.6-0.4,0.9c-0.2,0.1-0.4,0.1-0.5,0.2
			c-1.1,0.3-2.1,0.6-3.2,0.8c-1.4,0.4-2.8,0.7-4.2,1.1c-0.1,0-0.3,0-0.3,0.1c0,0,0,0-0.1,0c-1.2,0.3-2.5,0.6-3.7,0.9
			c-1.7,0.4-3.5,0.9-5.2,1.3c-0.1,0-0.1,0-0.1,0.1c-0.1,0-0.2,0-0.4,0.1c0-1.3-0.3-2.6-0.8-3.8c0.2,0,0.4-0.1,0.6-0.2
			c0.3-0.1,0.6-0.1,0.8-0.2c0.3,0,0.6-0.1,0.9-0.2c2.6-0.6,5.2-1.3,7.8-2c0.9-0.2,1.8-0.4,2.7-0.6c1.5-0.4,2.9-0.7,4.4-1.1
			c0.6-0.2,1.2-0.2,1.8-0.5c0.8,0,1.5-0.3,2.2-0.5C61.1,91.3,61.3,91.3,61.6,91.3z"/>
		<path id="XMLID_2428_" class="st3" d="M67.2,81.8c-0.8-0.6-1.6-1.2-2.4-1.8c-1.1-0.8-2.2-1.7-3.3-2.5c-0.9-0.7-1.8-1.4-2.7-2.1
			c-0.8-0.6-1.6-1.3-2.5-1.9c-0.9-0.7-1.8-1.3-2.6-2c0.4-0.4,0.7-0.8,1.1-1.3c0.4-0.6,0.8-1.2,1.1-1.9l0.1,0.1
			c0.8,0.7,1.7,1.3,2.6,1.9c1.1,1,2.4,1.8,3.5,2.7c1.5,1.2,3.1,2.3,4.6,3.5c0.2,0.1,0.3,0.3,0.3,0.6c-0.2,0.8-0.3,1.7-0.2,2.5
			C66.8,80.5,67.1,81,67.2,81.8z"/>
		<path id="XMLID_2418_" class="st3" d="M105.5,74.8c-0.8,0.5-1.5,0.9-2.3,1.4c-0.8,0.4-1.6,0.9-2.4,1.4c-0.7,0.4-1.4,0.8-2.1,1.3
			c-1.5,0.9-3.1,1.9-4.6,2.8c-0.1,0-0.1,0.1-0.2,0.1c-1.1,0.6-2,1.2-3.1,1.8c-0.3,0.2-0.6,0.5-1.1,0.6c0-0.1,0-0.2,0.1-0.2
			c0.9-1.6,1.5-3.2,1.7-5c0-0.2,0.1-0.2,0.2-0.3c0.6-0.3,1.1-0.7,1.6-1c0.3-0.1,0.6-0.3,0.8-0.5c1-0.5,2-1.2,2.9-1.7
			c1.9-1.1,3.7-2.3,5.5-3.4c0.2-0.1,0.4-0.2,0.6-0.4c0.1,0,0.2-0.1,0.2-0.1C104,72.6,104.7,73.8,105.5,74.8z"/>
		<path id="XMLID_2451_" class="st3" d="M123.9,67.3c0,4.3-2.7,7.9-6.4,9.2c-1,0.4-2,0.5-3.1,0.5c-2.8,0-5.4-1.3-7.2-3.3
			c-0.8-1-1.5-2.1-1.9-3.3c-0.3-1-0.5-2.1-0.5-3.2c0-4.3,2.7-7.9,6.4-9.2c1-0.4,2.1-0.6,3.2-0.6C119.6,57.5,123.9,61.9,123.9,67.3z"
			/>
		<path id="XMLID_2430_" class="st3" d="M134.5,118.8c0,1.3-0.2,2.5-0.7,3.6c-0.1,0.1-0.1,0.3-0.2,0.5c0,0.1-0.1,0.1-0.1,0.2
			c-1.6,3.3-4.8,5.5-8.6,5.5c-5.3,0-9.5-4.2-9.5-9.6c0-2.7,1-5.6,2.7-6.6l0,0c1.7-2,4.1-3.1,6.8-3.1
			C130.2,109.3,134.5,113.4,134.5,118.8z"/>
		<path id="XMLID_2447_" class="st3" d="M68.6,142.6c0,2.2-0.7,4.2-1.9,5.8c-1.7,2.4-4.5,4-7.7,4c-5.3,0-9.5-4.4-9.5-9.8
			c0-0.5,0-1.1,0.1-1.6c0.7-4.7,4.7-8.2,9.4-8.2c0.5,0,1.1,0,1.6,0.1c1.3,0.2,2.4,0.7,3.5,1.4C66.8,136.1,68.6,139.3,68.6,142.6z"/>
		<path id="XMLID_2389_" class="st3" d="M38.6,101c0,2.2-0.7,4.2-1.9,5.8c-1.7,2.4-4.5,4-7.7,4c-5.3,0-9.5-4.4-9.5-9.8
			c0-0.5,0-1.1,0.1-1.6c0.7-4.7,4.7-8.2,9.4-8.2c0.5,0,1.1,0,1.6,0.1c1.3,0.2,2.4,0.7,3.5,1.4C36.8,94.4,38.6,97.5,38.6,101z"/>
		<path id="XMLID_2400_" class="st3" d="M55,63.3c0,1.3-0.3,2.6-0.7,3.8c-0.3,0.7-0.7,1.4-1.1,2c-0.3,0.4-0.7,0.9-1.1,1.3
			c-1.7,1.7-4,2.7-6.6,2.7c-5.3,0-9.5-4.4-9.5-9.8c0-0.5,0-1.1,0.1-1.6c0.1-0.6,0.2-1.2,0.4-1.7l0,0c1.3-3.8,4.8-6.5,9-6.5
			c0.5,0,1.1,0,1.6,0.1c1.3,0.2,2.4,0.7,3.5,1.4C53.3,56.7,55,59.8,55,63.3z"/>
		<path id="XMLID_2414_" class="st3" d="M116.7,111.1c-1,0.7-1.7,1.9-2.3,3.1l-12.9-8.6c0,0,1-2.1,0.3-4.3L116.7,111.1z"/>
	</g>
	<path id="XMLID_2391_" class="st3" d="M98.7,102.9c-0.3-1.5-0.5-3-1.1-4.4c-0.3-0.8-0.6-1.5-1-2.2c-0.1-0.1-0.1-0.2-0.1-0.3
		c-0.6-0.9-1.3-1.8-2.2-2.4c-0.3-0.2-0.6-0.3-0.9-0.5c-0.9-0.5-2.9-1.4-2.9-1.4l0,0c-0.9-0.4-1.8-0.8-2.7-1.3
		c-0.8-0.4-1.7-0.7-2.4-1.3c-0.5-0.1-0.9-0.5-1.3-0.7c-0.2-0.1-0.1-0.2,0-0.3c0.3-0.4,0.6-0.8,0.9-1.2c0.1-0.3,0.1-0.6,0.4-0.8l0,0
		c0-0.1,0-0.1,0.1-0.2c0.3-0.8,0.4-1.6,1-2.3c1-1.2,1.6-2.6,1.8-4.1c0-0.1-0.1-0.2,0-0.2c0-0.5,0-1,0-1.4c-0.1-0.5-0.2-0.9-0.7-1.1
		c-0.2-0.1-0.1-0.3-0.1-0.4c0-1.1-0.1-2.1-0.1-3.2c0-1.6-0.3-3-1.1-4.3c0-0.1,0-0.2,0-0.2c-0.3-0.3-0.6-0.7-0.9-1.1
		c-0.4-0.1-0.7-0.5-1-0.7c-1.2-0.8-2.6-1.2-4.1-1.3c-1.2-0.1-2.3-0.1-3.5,0.2c-0.1,0-0.1,0-0.2,0c-0.7,0.2-1.3,0.4-2,0.8
		c-1,0.5-1.8,1.3-2.4,2.2c-0.2,0.7-0.6,1.2-0.8,1.9c-0.2,0.8-0.3,1.5-0.4,2.3c0,1.2-0.1,2.4-0.1,3.5c0,0.2,0,0.4-0.3,0.5
		c-0.4,0.1-0.3,0.5-0.5,0.8v0.1c-0.3,2.3,0.5,4.2,1.9,5.9c0.3,0.4,0.5,0.7,0.6,1.2c0.2,0.6,0.4,1.3,0.7,1.9c0.3,0.5,0.7,1,1,1.4
		c0.2,0.2,0.1,0.3-0.1,0.4c-1,0.6-2,1.1-3,1.6s-2.1,1-3.1,1.4c-0.1,0.1-0.3,0.1-0.5,0.1c-0.5,0.4-1.1,0.6-1.7,0.8
		c-0.9,0.4-1.8,0.8-2.5,1.5c-0.6,0.5-1.1,1.2-1.5,1.8c0,0.1,0,0.1-0.1,0.1l0,0c-0.1,0.3-0.3,0.6-0.4,0.8c-1,2-1.6,4.1-1.8,6.3
		c-0.2,1.9,0.8,1.9,0.8,2c0.9,0.3,1.9,0.6,2.8,0.8c1,0.2,3,0.6,3,0.6s7.3,1.8,19.1,0.8l0,0l0,0c2.7-0.2,5.6-0.6,8.8-1.2h0.1
		c1.2-0.3,2.4-0.5,3.5-0.9c0,0,0.2-0.1,0.4-0.4l0,0C98.7,104.1,98.8,103.5,98.7,102.9z"/>
</g>
<path id="XMLID_38_" class="st3" d="M119.3,51.5c-13.5,0-24.5-11-24.5-24.5s11-24.5,24.5-24.5s24.5,11,24.5,24.5
	S132.9,51.5,119.3,51.5z"/>
<path id="XMLID_35_" class="st0" d="M119.3,5c12.1,0,22,9.9,22,22s-9.9,22-22,22s-22-9.9-22-22S107.2,5,119.3,5 M119.3,0
	c-14.9,0-27,12.1-27,27s12.1,27,27,27s27-12.1,27-27S134.3,0,119.3,0L119.3,0z"/>
<text id="XMLID_23_" transform="matrix(1 0 0 1 108.5064 38.8357)" class="st0 st4 st5">5</text>
</svg>
