<?xml version="1.0" encoding="utf-8"?>
<!-- Generator: Adobe Illustrator 19.0.0, SVG Export Plug-In . SVG Version: 6.00 Build 0)  -->
<svg version="1.1" id="Layer_1" xmlns="http://www.w3.org/2000/svg" xmlns:xlink="http://www.w3.org/1999/xlink" x="0px" y="0px"
	 viewBox="-391 181 176 200" style="enable-background:new -391 181 176 200;" xml:space="preserve">
<path id="XMLID_2092_" style="fill:#FFFFFF;" d="M-233,242.2v77.6c0,0.8-1.3,2.9-2,3.3l-66.1,38.8c-0.2,0.1-0.9,0.3-1.9,0.3
	s-1.7-0.2-1.9-0.3l-66.1-38.8c-0.7-0.4-1.9-2.5-1.9-3.3v-77.6c0-0.8,1.2-2.9,1.9-3.3l66-38.8c0.2-0.1,0.9-0.3,1.9-0.3
	s1.7,0.2,1.9,0.3l66.2,38.8C-234.3,239.3-233,241.4-233,242.2z"/>
<path id="XMLID_12_" style="fill:#FFBDBB;" d="M-231.2,231.2l-65.8-38.9c-1.6-1-4-1.5-6-1.5l0,0c-3,0-4.8,0.5-6.4,1.5l-66.2,38.9
	c-3.4,2-6.4,7-6.4,11v20.1V302v17.8c0,4,3,9.1,6.3,11l66.1,38.8c1.6,1,3.9,1.5,6.3,1.5s4.6-0.5,6.3-1.5l65.9-38.8
	c3.4-2,6.2-7,6.2-11V302v-59.8C-225,238.2-227.8,233.2-231.2,231.2z M-233,302.1v17.8c0,0.8-1.4,2.9-2.1,3.3l-66.2,38.8
	c-0.2,0.1-1,0.3-2,0.3s-1.7-0.2-1.9-0.3l-66-38.8c-0.7-0.4-1.8-2.5-1.8-3.3v-17.8v-39.8v-20.1c0-0.8,1.1-2.9,1.8-3.3l66.2-38.8
	c0.2-0.1,1-0.3,2-0.3l0,0c1,0,1.5,0.2,1.7,0.3l66.2,38.8c0.7,0.4,2.1,2.5,2.1,3.3V302.1z"/>
<path id="XMLID_4_" style="fill:#5867DD;" d="M-226.2,222.5l-66-38.8c-3.1-1.8-7-2.8-11.1-2.8s-8,1-11.1,2.8l-65.7,38.9
	c-6.5,3.8-10.9,12-10.9,19.6v77.5c0,7.6,4.4,15.9,10.8,19.7l65.9,38.9c3.1,1.8,7,2.8,11,2.8s7.9-1,11-2.8l66.1-38.9
	c6.4-3.8,11.1-12,11.1-19.7v-17.8l0.1-40v-19.7C-215,234.6-219.7,226.3-226.2,222.5z M-224.9,262.3L-224.9,262.3l-0.1,57.5
	c0,4-2.8,9.1-6.1,11l-66,38.8c-1.6,1-3.8,1.5-6.2,1.5s-4.6-0.5-6.2-1.5l-66.2-38.7c-3.4-2-6.3-7-6.3-11v-77.7c0-4,3-9,6.3-11
	l66.1-38.8c1.6-1,3.9-1.5,6.3-1.5s4.6,0.5,6.3,1.5l65.9,38.8c3.4,2,6.2,7,6.2,11V262.3L-224.9,262.3z"/>
<g id="XMLID_5_">
	<g id="XMLID_777_">
		<path id="XMLID_2431_" style="fill:#FF5A54;" d="M-307,291.8c-0.4,1-0.9,2-1.3,3.1c0,0.1-0.1,0.1-0.1,0.2l0,0c0,0,0,0.1,0,0.2
			c-0.8,2.2-1.6,4.4-2.4,6.6c-0.3,0.8-0.7,1.6-0.8,2.5c-0.4,0.8-0.6,1.6-0.9,2.4c-0.6,1.5-1.1,2.9-1.7,4.4c-0.3,0.8-0.7,1.5-0.8,2.3
			c0,0,0,0.1-0.1,0.1c-1.1-0.7-2.3-1.1-3.5-1.4c0.7-2,1.5-4,2.2-6c0.2-0.6,0.4-1.3,0.7-1.9c0.5-0.9,0.7-1.9,1.1-2.8
			c0.5-1.4,1-2.8,1.6-4.2c0.7-2,1.5-3.9,2.2-5.9c0.1-0.3,0.3-0.5,0.6-0.4c1,0.1,2,0.3,3.1,0.3C-306.7,291.3-306.9,291.5-307,291.8z"
			/>
		<path id="XMLID_2426_" style="fill:#FF5A54;" d="M-318.4,272.3c-1.2,1.1-2.3,2.2-3,3.7c-0.2,0.3-0.4,0.6-0.4,0.9
			c-0.2,0.1-0.4,0.1-0.5,0.2c-1.1,0.3-2.1,0.6-3.2,0.8c-1.4,0.4-2.8,0.7-4.2,1.1c-0.1,0-0.3,0-0.3,0.1c0,0,0,0-0.1,0
			c-1.2,0.3-2.5,0.6-3.7,0.9c-1.7,0.4-3.5,0.9-5.2,1.3c-0.1,0-0.1,0-0.1,0.1c-0.1,0-0.2,0-0.4,0.1c0-1.3-0.3-2.6-0.8-3.8
			c0.2,0,0.4-0.1,0.6-0.2c0.3-0.1,0.6-0.1,0.8-0.2c0.3,0,0.6-0.1,0.9-0.2c2.6-0.6,5.2-1.3,7.8-2c0.9-0.2,1.8-0.4,2.7-0.6
			c1.5-0.4,2.9-0.7,4.4-1.1c0.6-0.2,1.2-0.2,1.8-0.5c0.8,0,1.5-0.3,2.2-0.5C-318.9,272.3-318.7,272.3-318.4,272.3z"/>
		<path id="XMLID_2428_" style="fill:#FF5A54;" d="M-312.8,262.8c-0.8-0.6-1.6-1.2-2.4-1.8c-1.1-0.8-2.2-1.7-3.3-2.5
			c-0.9-0.7-1.8-1.4-2.7-2.1c-0.8-0.6-1.6-1.3-2.5-1.9c-0.9-0.7-1.8-1.3-2.6-2c0.4-0.4,0.7-0.8,1.1-1.3c0.4-0.6,0.8-1.2,1.1-1.9
			l0.1,0.1c0.8,0.7,1.7,1.3,2.6,1.9c1.1,1,2.4,1.8,3.5,2.7c1.5,1.2,3.1,2.3,4.6,3.5c0.2,0.1,0.3,0.3,0.3,0.6
			c-0.2,0.8-0.3,1.7-0.2,2.5C-313.2,261.5-312.9,262-312.8,262.8z"/>
		<path id="XMLID_2418_" style="fill:#FF5A54;" d="M-274.5,255.8c-0.8,0.5-1.5,0.9-2.3,1.4c-0.8,0.4-1.6,0.9-2.4,1.4
			c-0.7,0.4-1.4,0.8-2.1,1.3c-1.5,0.9-3.1,1.9-4.6,2.8c-0.1,0-0.1,0.1-0.2,0.1c-1.1,0.6-2,1.2-3.1,1.8c-0.3,0.2-0.6,0.5-1.1,0.6
			c0-0.1,0-0.2,0.1-0.2c0.9-1.6,1.5-3.2,1.7-5c0-0.2,0.1-0.2,0.2-0.3c0.6-0.3,1.1-0.7,1.6-1c0.3-0.1,0.6-0.3,0.8-0.5
			c1-0.5,2-1.2,2.9-1.7c1.9-1.1,3.7-2.3,5.5-3.4c0.2-0.1,0.4-0.2,0.6-0.4c0.1,0,0.2-0.1,0.2-0.1C-276,253.6-275.3,254.8-274.5,255.8
			z"/>
		<path id="XMLID_2451_" style="fill:#FF5A54;" d="M-256.1,248.3c0,4.3-2.7,7.9-6.4,9.2c-1,0.4-2,0.5-3.1,0.5
			c-2.8,0-5.4-1.3-7.2-3.3c-0.8-1-1.5-2.1-1.9-3.3c-0.3-1-0.5-2.1-0.5-3.2c0-4.3,2.7-7.9,6.4-9.2c1-0.4,2.1-0.6,3.2-0.6
			C-260.4,238.5-256.1,242.9-256.1,248.3z"/>
		<path id="XMLID_2430_" style="fill:#FF5A54;" d="M-245.5,299.8c0,1.3-0.2,2.5-0.7,3.6c-0.1,0.1-0.1,0.3-0.2,0.5
			c0,0.1-0.1,0.1-0.1,0.2c-1.6,3.3-4.8,5.5-8.6,5.5c-5.3,0-9.5-4.2-9.5-9.6c0-2.7,1-5.6,2.7-6.6l0,0c1.7-2,4.1-3.1,6.8-3.1
			C-249.8,290.3-245.5,294.4-245.5,299.8z"/>
		<path id="XMLID_2447_" style="fill:#FF5A54;" d="M-311.4,323.6c0,2.2-0.7,4.2-1.9,5.8c-1.7,2.4-4.5,4-7.7,4
			c-5.3,0-9.5-4.4-9.5-9.8c0-0.5,0-1.1,0.1-1.6c0.7-4.7,4.7-8.2,9.4-8.2c0.5,0,1.1,0,1.6,0.1c1.3,0.2,2.4,0.7,3.5,1.4
			C-313.2,317.1-311.4,320.3-311.4,323.6z"/>
		<path id="XMLID_2389_" style="fill:#FF5A54;" d="M-341.4,282c0,2.2-0.7,4.2-1.9,5.8c-1.7,2.4-4.5,4-7.7,4c-5.3,0-9.5-4.4-9.5-9.8
			c0-0.5,0-1.1,0.1-1.6c0.7-4.7,4.7-8.2,9.4-8.2c0.5,0,1.1,0,1.6,0.1c1.3,0.2,2.4,0.7,3.5,1.4C-343.2,275.4-341.4,278.5-341.4,282z"
			/>
		<path id="XMLID_2400_" style="fill:#FF5A54;" d="M-325,244.3c0,1.3-0.3,2.6-0.7,3.8c-0.3,0.7-0.7,1.4-1.1,2
			c-0.3,0.4-0.7,0.9-1.1,1.3c-1.7,1.7-4,2.7-6.6,2.7c-5.3,0-9.5-4.4-9.5-9.8c0-0.5,0-1.1,0.1-1.6c0.1-0.6,0.2-1.2,0.4-1.7l0,0
			c1.3-3.8,4.8-6.5,9-6.5c0.5,0,1.1,0,1.6,0.1c1.3,0.2,2.4,0.7,3.5,1.4C-326.7,237.7-325,240.8-325,244.3z"/>
		<path id="XMLID_2414_" style="fill:#FF5A54;" d="M-263.3,292.1c-1,0.7-1.7,1.9-2.3,3.1l-12.9-8.6c0,0,1-2.1,0.3-4.3L-263.3,292.1z
			"/>
	</g>
	<path id="XMLID_2391_" style="fill:#FF5A54;" d="M-281.3,283.9c-0.3-1.5-0.5-3-1.1-4.4c-0.3-0.8-0.6-1.5-1-2.2
		c-0.1-0.1-0.1-0.2-0.1-0.3c-0.6-0.9-1.3-1.8-2.2-2.4c-0.3-0.2-0.6-0.3-0.9-0.5c-0.9-0.5-2.9-1.4-2.9-1.4l0,0
		c-0.9-0.4-1.8-0.8-2.7-1.3c-0.8-0.4-1.7-0.7-2.4-1.3c-0.5-0.1-0.9-0.5-1.3-0.7c-0.2-0.1-0.1-0.2,0-0.3c0.3-0.4,0.6-0.8,0.9-1.2
		c0.1-0.3,0.1-0.6,0.4-0.8l0,0c0-0.1,0-0.1,0.1-0.2c0.3-0.8,0.4-1.6,1-2.3c1-1.2,1.6-2.6,1.8-4.1c0-0.1-0.1-0.2,0-0.2
		c0-0.5,0-1,0-1.4c-0.1-0.5-0.2-0.9-0.7-1.1c-0.2-0.1-0.1-0.3-0.1-0.4c0-1.1-0.1-2.1-0.1-3.2c0-1.6-0.3-3-1.1-4.3c0-0.1,0-0.2,0-0.2
		c-0.3-0.3-0.6-0.7-0.9-1.1c-0.4-0.1-0.7-0.5-1-0.7c-1.2-0.8-2.6-1.2-4.1-1.3c-1.2-0.1-2.3-0.1-3.5,0.2c-0.1,0-0.1,0-0.2,0
		c-0.7,0.2-1.3,0.4-2,0.8c-1,0.5-1.8,1.3-2.4,2.2c-0.2,0.7-0.6,1.2-0.8,1.9c-0.2,0.8-0.3,1.5-0.4,2.3c0,1.2-0.1,2.4-0.1,3.5
		c0,0.2,0,0.4-0.3,0.5c-0.4,0.1-0.3,0.5-0.5,0.8v0.1c-0.3,2.3,0.5,4.2,1.9,5.9c0.3,0.4,0.5,0.7,0.6,1.2c0.2,0.6,0.4,1.3,0.7,1.9
		c0.3,0.5,0.7,1,1,1.4c0.2,0.2,0.1,0.3-0.1,0.4c-1,0.6-2,1.1-3,1.6s-2.1,1-3.1,1.4c-0.1,0.1-0.3,0.1-0.5,0.1
		c-0.5,0.4-1.1,0.6-1.7,0.8c-0.9,0.4-1.8,0.8-2.5,1.5c-0.6,0.5-1.1,1.2-1.5,1.8c0,0.1,0,0.1-0.1,0.1l0,0c-0.1,0.3-0.3,0.6-0.4,0.8
		c-1,2-1.6,4.1-1.8,6.3c-0.2,1.9,0.8,1.9,0.8,2c0.9,0.3,1.9,0.6,2.8,0.8c1,0.2,3,0.6,3,0.6s7.3,1.8,19.1,0.8l0,0l0,0
		c2.7-0.2,5.6-0.6,8.8-1.2h0.1c1.2-0.3,2.4-0.5,3.5-0.9c0,0,0.2-0.1,0.4-0.4l0,0C-281.3,285.1-281.2,284.5-281.3,283.9z"/>
</g>
<path id="XMLID_38_" style="fill:#FF5A54;" d="M-260.7,232.5c-13.5,0-24.5-11-24.5-24.5s11-24.5,24.5-24.5s24.5,11,24.5,24.5
	S-247.1,232.5-260.7,232.5z"/>
<path id="XMLID_35_" style="fill:#FFFFFF;" d="M-260.7,186c12.1,0,22,9.9,22,22s-9.9,22-22,22s-22-9.9-22-22S-272.8,186-260.7,186
	 M-260.7,181c-14.9,0-27,12.1-27,27s12.1,27,27,27c14.9,0,27-12.1,27-27S-245.7,181-260.7,181L-260.7,181z"/>
<text id="XMLID_23_" transform="matrix(1 0 0 1 -268.8247 219.8357)" style="fill:#FFFFFF; font-family:'Rubik-Medium'; font-size:34px;">1</text>
</svg>
