<?xml version="1.0" encoding="utf-8"?>
<!-- Generator: Adobe Illustrator 19.0.0, SVG Export Plug-In . SVG Version: 6.00 Build 0)  -->
<svg version="1.1" id="Layer_1" xmlns="http://www.w3.org/2000/svg" xmlns:xlink="http://www.w3.org/1999/xlink" x="0px" y="0px"
	 viewBox="-11 0 176 200" style="enable-background:new -11 0 176 200;" xml:space="preserve">
<style type="text/css">
	.st0{fill:#FFFFFF;}
	.st1{fill:#FBCDA6;}
	.st2{fill:#5867DD;}
	.st3{fill:#F58220;}
	.st4{fill:#FAA61A;}
	.st5{font-family:'Rubik-Medium';}
	.st6{font-size:56px;}
</style>
<path id="XMLID_2092_" class="st0" d="M147,61.2v77.6c0,0.8-1.3,2.9-2,3.3l-66.1,38.8c-0.2,0.1-0.9,0.3-1.9,0.3s-1.7-0.2-1.9-0.3
	L9,142.1c-0.7-0.4-1.9-2.5-1.9-3.3V61.2c0-0.8,1.2-2.9,1.9-3.3l66-38.8c0.2-0.1,0.9-0.3,1.9-0.3s1.7,0.2,1.9,0.3L145,57.9
	C145.7,58.3,147,60.4,147,61.2z"/>
<path id="XMLID_12_" class="st1" d="M148.8,50.2L83,11.3c-1.6-1-4-1.5-6-1.5l0,0c-3,0-4.8,0.5-6.4,1.5L4.4,50.2c-3.4,2-6.4,7-6.4,11
	v20.1V121v17.8c0,4,3,9.1,6.3,11l66.1,38.8c1.6,1,3.9,1.5,6.3,1.5s4.6-0.5,6.3-1.5l65.9-38.8c3.4-2,6.2-7,6.2-11V121V61.2
	C155,57.2,152.2,52.2,148.8,50.2z M147,121.1v17.8c0,0.8-1.4,2.9-2.1,3.3L78.7,181c-0.2,0.1-1,0.3-2,0.3s-1.7-0.2-1.9-0.3l-66-38.8
	c-0.7-0.4-1.8-2.5-1.8-3.3v-17.8V81.3V61.2c0-0.8,1.1-2.9,1.8-3.3L75,19.1c0.2-0.1,1-0.3,2-0.3l0,0c1,0,1.5,0.2,1.7,0.3l66.2,38.8
	c0.7,0.4,2.1,2.5,2.1,3.3V121.1z"/>
<path id="XMLID_4_" class="st2" d="M153.8,41.5l-66-38.8c-3.1-1.8-7-2.8-11.1-2.8s-8,1-11.1,2.8L-0.1,41.6
	C-6.6,45.4-11,53.6-11,61.2v77.5c0,7.6,4.4,15.9,10.8,19.7l65.9,38.9c3.1,1.8,7,2.8,11,2.8s7.9-1,11-2.8l66.1-38.9
	c6.4-3.8,11.1-12,11.1-19.7v-17.8l0.1-40V61.2C165,53.6,160.3,45.3,153.8,41.5z M155.1,81.3L155.1,81.3l-0.1,57.5
	c0,4-2.8,9.1-6.1,11l-66,38.8c-1.6,1-3.8,1.5-6.2,1.5c-2.4,0-4.6-0.5-6.2-1.5L4.3,149.9c-3.4-2-6.3-7-6.3-11V61.2c0-4,3-9,6.3-11
	l66.1-38.8c1.6-1,3.9-1.5,6.3-1.5s4.6,0.5,6.3,1.5l65.9,38.8c3.4,2,6.2,7,6.2,11L155.1,81.3L155.1,81.3z"/>
<g id="XMLID_2062_">
	<g id="XMLID_2063_">
		<path id="XMLID_2064_" class="st3" d="M70.2,156L59.8,149c-1.4-0.9-2.9-1.5-4.5-1.9l-12.3-2.5c-4.9-0.9-8.7-4.9-9.7-9.9l-2.4-12.5
			c-0.4-1.6-0.9-3.2-1.9-4.6l-7-10.6c-2.8-4.2-2.8-9.8,0-14l7-10.6c0.9-1.4,1.5-2.9,1.9-4.6l2.4-12.5c0.9-5.1,4.8-9,9.7-9.9
			l12.3-2.5c1.6-0.4,3.2-0.9,4.5-1.9L70.2,44c4.1-2.8,9.5-2.8,13.7,0L94.2,51c1.4,0.9,2.9,1.5,4.5,1.9l12.3,2.5
			c4.9,0.9,8.7,4.9,9.7,9.9l2.4,12.5c0.4,1.6,0.9,3.2,1.9,4.6l7,10.6c2.8,4.2,2.8,9.8,0,14l-7,10.6c-0.9,1.4-1.5,2.9-1.9,4.6
			l-2.4,12.5c-0.9,5.1-4.8,9-9.7,9.9l-12.3,2.5c-1.6,0.4-3.2,0.9-4.5,1.9L83.8,156C79.7,158.9,74.3,158.9,70.2,156z"/>
	</g>
</g>
<g id="XMLID_2059_">
	<g id="XMLID_47_">
		<g id="XMLID_48_">
			<ellipse id="XMLID_49_" class="st4" cx="77" cy="100" rx="38.8" ry="39.8"/>
		</g>
	</g>
</g>
<text id="XMLID_1_" transform="matrix(0.9757 0 0 1 46.3205 120.0418)" class="st0 st5 st6">10</text>
</svg>
