<?xml version="1.0" encoding="utf-8"?>
<!-- Generator: Adobe Illustrator 19.0.0, SVG Export Plug-In . SVG Version: 6.00 Build 0)  -->
<svg version="1.1" id="Layer_1" xmlns="http://www.w3.org/2000/svg" xmlns:xlink="http://www.w3.org/1999/xlink" x="0px" y="0px"
	 viewBox="-391 181 176 200" style="enable-background:new -391 181 176 200;" xml:space="preserve">
<path id="XMLID_44_" style="fill:#FFFFFF;" d="M-234,242.6v77.5c0,0.8-0.9,2.9-1.6,3.3l-65.9,38.8c-0.2,0.1-0.8,0.3-1.8,0.3
	s-1.7-0.2-1.9-0.3l-66-38.8c-0.7-0.4-1.8-2.5-1.8-3.3v-77.5c0-0.8,1.1-2.9,1.8-3.3l66-38.8c0.2-0.1,0.9-0.3,1.9-0.3s1.7,0.2,1.9,0.3
	l65.8,38.8C-234.9,239.7-234,241.8-234,242.6z"/>
<path id="XMLID_37_" style="fill:#B9E5FB;" d="M-231.2,231.2l-65.8-38.8c-1.6-1-4-1.5-6-1.5l0,0c-3,0-4.7,0.5-6.4,1.5l-66.1,38.8
	c-3.4,2-6.5,7-6.5,11v20.1V302v17.8c0,4,3,9,6.4,11l66,38.8c1.6,1,3.9,1.5,6.3,1.5c2.4,0,4.6-0.5,6.3-1.5l65.9-38.8
	c3.4-2,6.1-7,6.1-11V302v-59.8C-225,238.3-227.8,233.2-231.2,231.2z M-234,302v17.8c0,0.8-0.9,2.9-1.6,3.3l-65.9,38.8
	c-0.2,0.1-0.8,0.3-1.8,0.3s-1.7-0.2-1.9-0.3l-66-38.8c-0.7-0.4-1.9-2.5-1.9-3.3V302v-39.7v-20.1c0-0.8,1.2-2.9,1.9-3.3l66.2-38.8
	c0.2-0.1,1-0.3,2-0.3l0,0c1,0,1.6,0.2,1.7,0.3l65.7,38.8c0.7,0.4,1.6,2.5,1.6,3.3V302z"/>
<path id="XMLID_5_" style="fill:#16C3F9;" d="M-226.1,222.6l-66-38.8c-3.1-1.8-7-2.8-11.1-2.8c-4.1,0-8,1-11.1,2.8l-65.8,38.8
	c-6.4,3.8-10.9,12.1-10.9,19.6v77.6c0,7.6,4.5,15.9,10.9,19.6l65.9,38.8c3.1,1.8,7,2.8,11,2.8s7.9-1,11-2.8l66-38.8
	c6.4-3.8,11.1-12,11.1-19.6V302l0.1-40v-19.8C-215,234.6-219.7,226.4-226.1,222.6z M-224.9,262.3L-224.9,262.3l-0.1,57.5
	c0,4-2.8,9-6.1,11l-65.9,38.8c-1.6,1-3.8,1.5-6.2,1.5c-2.4,0-4.6-0.5-6.2-1.5l-66.1-38.8c-3.4-2-6.4-7-6.4-11v-77.6c0-4,3-9,6.4-11
	l66-38.8c1.6-1,3.9-1.5,6.3-1.5s4.6,0.5,6.3,1.5l65.9,38.8c3.4,2,6.1,7,6.1,11V262.3z"/>
<g id="XMLID_93_">
	<polygon id="XMLID_96_" style="fill:#16C3F9;" points="-303.5,337.7 -353.2,279.8 -253.8,279.8 	"/>
</g>
<g id="XMLID_4_">
	<g id="XMLID_89_">
		<polygon id="XMLID_90_" style="fill:#C7EAFB;" points="-336.7,257.4 -353.2,279.8 -320.2,279.8 		"/>
	</g>
	<g id="XMLID_87_">
		<polygon id="XMLID_88_" style="fill:#C7EAFB;" points="-303.6,257.4 -320.1,279.8 -287.1,279.8 		"/>
	</g>
	<g id="XMLID_85_">
		<polygon id="XMLID_86_" style="fill:#C7EAFB;" points="-270.3,257.4 -286.7,279.8 -253.8,279.8 		"/>
	</g>
</g>
<g id="XMLID_1_">
	<g id="XMLID_99_">
		<polygon id="XMLID_100_" style="fill:#8ED8F8;" points="-286.9,280 -303.6,257.4 -270.3,257.4 		"/>
	</g>
	<g id="XMLID_97_">
		<polygon id="XMLID_98_" style="fill:#8ED8F8;" points="-320.1,280 -336.7,257.4 -303.4,257.4 		"/>
	</g>
	<g id="XMLID_91_">
		<polygon id="XMLID_92_" style="fill:#8ED8F8;" points="-303.5,337.7 -320.1,279.8 -286.7,279.8 		"/>
	</g>
	<g id="XMLID_83_">
		<path id="XMLID_84_" style="fill:#8ED8F8;" d="M-283,248.8c-2.6,0.8-3.2,1.4-3.9,4c-0.8-2.6-1.4-3.3-3.9-4c2.6-0.8,3.2-1.4,3.9-4
			C-286.1,247.4-285.5,248-283,248.8z"/>
	</g>
	<g id="XMLID_81_">
		<path id="XMLID_82_" style="fill:#8ED8F8;" d="M-308.8,244.7c-3.6,1.1-4.4,2-5.5,5.6c-1.1-3.7-1.9-4.5-5.5-5.6
			c3.6-1.1,4.4-2,5.5-5.6C-313.2,242.8-312.4,243.7-308.8,244.7z"/>
	</g>
	<g id="XMLID_79_">
		<path id="XMLID_80_" style="fill:#8ED8F8;" d="M-289.6,232.4c-4.5,1.4-5.6,2.5-6.9,7.1c-1.3-4.6-2.4-5.7-6.9-7.1
			c4.5-1.4,5.6-2.5,6.9-7.1C-295.2,229.9-294.1,231-289.6,232.4z"/>
	</g>
</g>
</svg>
