<?xml version="1.0" encoding="utf-8"?>
<!-- Generator: Adobe Illustrator 19.0.0, SVG Export Plug-In . SVG Version: 6.00 Build 0)  -->
<svg version="1.1" id="Layer_1" xmlns="http://www.w3.org/2000/svg" xmlns:xlink="http://www.w3.org/1999/xlink" x="0px" y="0px"
	 viewBox="-391 181 176 200" style="enable-background:new -391 181 176 200;" xml:space="preserve">
<path id="XMLID_30_" style="fill:#FFFFFF;" d="M-233,242.2v77.5c0,0.8-1.4,2.9-2.1,3.3l-66.2,38.8c-0.2,0.1-1,0.3-2,0.3
	s-1.8-0.2-1.9-0.3l-66-38.8c-0.7-0.4-1.8-2.5-1.8-3.3v-77.5c0-0.8,1.1-2.9,1.8-3.3l66.2-38.8c0.2-0.1,1-0.3,2-0.3l0,0
	c1,0,1.5,0.2,1.7,0.3l66.3,38.8C-234.3,239.4-233,241.4-233,242.2z"/>
<path id="XMLID_24_" style="fill:#FFF1AD;" d="M-231.2,231.2l-65.8-38.8c-1.6-1-4-1.5-6-1.5l0,0c-3,0-4.8,0.5-6.4,1.5l-66.2,38.8
	c-3.4,2-6.4,7-6.4,11v20.1V302v17.8c0,4,3,9,6.3,11l66.1,38.8c1.6,1,3.9,1.5,6.3,1.5c2.4,0,4.6-0.5,6.3-1.5l65.9-38.8
	c3.4-2,6.2-7,6.2-11V302v-59.8C-225,238.3-227.8,233.2-231.2,231.2z M-233,302v17.8c0,0.8-1.4,2.9-2.1,3.3l-66.2,38.8
	c-0.2,0.1-1,0.3-2,0.3s-1.7-0.2-1.9-0.3l-66-38.8c-0.7-0.4-1.8-2.5-1.8-3.3V302v-39.7v-20.1c0-0.8,1.1-2.9,1.8-3.3l66.2-38.8
	c0.2-0.1,1-0.3,2-0.3l0,0c1,0,1.5,0.2,1.7,0.3l66.2,38.8c0.7,0.4,2.1,2.5,2.1,3.3V302z"/>
<path id="XMLID_13_" style="fill:#F7941E;" d="M-226.2,222.6l-66-38.8c-3.1-1.8-7-2.8-11.1-2.8c-4.1,0-8,1-11.1,2.8l-65.7,38.8
	c-6.5,3.8-10.9,12.1-10.9,19.6v77.6c0,7.6,4.4,15.9,10.8,19.6l65.9,38.8c3.1,1.8,7,2.8,11,2.8s7.9-1,11-2.8l66.1-38.8
	c6.4-3.8,11.1-12,11.1-19.6V302l0.1-40v-19.8C-215,234.6-219.7,226.4-226.2,222.6z M-224.8,262.3h-0.2v57.5c0,4-2.8,9-6.1,11
	l-66,38.8c-1.6,1-3.8,1.5-6.2,1.5c-2.4,0-4.6-0.5-6.2-1.5l-66.1-38.8c-3.4-2-6.3-7-6.3-11v-77.6c0-4,3-9,6.3-11l66.1-38.8
	c1.6-1,3.9-1.5,6.3-1.5c2.4,0,4.6,0.5,6.3,1.5l65.9,38.8c3.4,2,6.2,7,6.2,11V262.3z"/>
<g id="XMLID_54_">
	<polygon id="XMLID_58_" style="fill:#F7941E;" points="-302.9,336.9 -352.6,279 -253.1,279 	"/>
</g>
<g id="XMLID_45_">
	<g id="XMLID_40_">
		<polygon id="XMLID_41_" style="fill:#FFCB05;" points="-336.1,256.7 -352.6,279 -319.6,279 		"/>
	</g>
	<g id="XMLID_4_">
		<polygon id="XMLID_12_" style="fill:#FFCB05;" points="-303,256.7 -319.5,279 -286.5,279 		"/>
	</g>
	<g id="XMLID_34_">
		<polygon id="XMLID_35_" style="fill:#FFCB05;" points="-269.6,256.7 -286.1,279 -253.1,279 		"/>
	</g>
</g>
<g id="XMLID_73_">
	<g id="XMLID_63_">
		<polygon id="XMLID_64_" style="fill:#FCB412;" points="-286.3,279.3 -303,256.7 -269.6,256.7 		"/>
	</g>
	<g id="XMLID_59_">
		<polygon id="XMLID_60_" style="fill:#FCB412;" points="-319.5,279.3 -336.1,256.7 -302.8,256.7 		"/>
	</g>
	<g id="XMLID_42_">
		<polygon id="XMLID_43_" style="fill:#FCB412;" points="-302.9,336.9 -319.5,279 -286.1,279 		"/>
	</g>
	<g id="XMLID_29_">
		<path id="XMLID_33_" style="fill:#FCB412;" d="M-282.4,248c-2.6,0.8-3.2,1.4-3.9,4c-0.8-2.6-1.4-3.3-3.9-4c2.6-0.8,3.2-1.4,3.9-4
			C-285.5,246.6-284.9,247.3-282.4,248z"/>
	</g>
	<g id="XMLID_27_">
		<path id="XMLID_28_" style="fill:#FCB412;" d="M-308.2,244c-3.6,1.1-4.4,2-5.5,5.6c-1.1-3.7-1.9-4.5-5.5-5.6
			c3.6-1.1,4.4-2,5.5-5.6C-312.7,242-311.8,242.9-308.2,244z"/>
	</g>
	<g id="XMLID_25_">
		<path id="XMLID_26_" style="fill:#FCB412;" d="M-289,231.7c-4.5,1.4-5.6,2.5-6.9,7.1c-1.3-4.6-2.4-5.7-6.9-7.1
			c4.5-1.4,5.6-2.5,6.9-7.1C-294.6,229.2-293.5,230.3-289,231.7z"/>
	</g>
</g>
</svg>
