<?xml version="1.0" encoding="utf-8"?>
<!-- Generator: Adobe Illustrator 19.0.0, SVG Export Plug-In . SVG Version: 6.00 Build 0)  -->
<svg version="1.1" id="Layer_1" xmlns="http://www.w3.org/2000/svg" xmlns:xlink="http://www.w3.org/1999/xlink" x="0px" y="0px"
	 viewBox="-391 181 176 200" style="enable-background:new -391 181 176 200;" xml:space="preserve">
<path id="XMLID_30_" style="fill:#FFFFFF;" d="M-233.1,242.2v77.5c0,0.8-1.4,2.9-2.1,3.3l-66.2,38.8c-0.2,0.1-1,0.3-2,0.3
	s-1.8-0.2-1.9-0.3l-66-38.8c-0.7-0.4-1.8-2.5-1.8-3.3v-77.5c0-0.8,1.1-2.9,1.8-3.3l66.2-38.8c0.2-0.1,1-0.3,2-0.3l0,0
	c1,0,1.5,0.2,1.7,0.3l66.3,38.8C-234.4,239.4-233.1,241.4-233.1,242.2z"/>
<g id="Shape_5">
	<polygon id="XMLID_313_" style="fill:#7C4A0F;" points="-303.5,336.9 -353.2,279 -253.7,279 	"/>
</g>
<g id="Shape_4">
	<g id="XMLID_308_">
		<polygon id="XMLID_309_" style="fill:#F7931E;" points="-336.7,256.7 -353.2,279 -320.2,279 		"/>
	</g>
	<g id="XMLID_306_">
		<polygon id="XMLID_307_" style="fill:#F7931E;" points="-303.6,256.7 -320,279 -287.1,279 		"/>
	</g>
	<g id="XMLID_304_">
		<polygon id="XMLID_305_" style="fill:#F7931E;" points="-270.2,256.7 -286.7,279 -253.7,279 		"/>
	</g>
</g>
<g id="star">
	<g id="XMLID_316_">
		<polygon id="XMLID_317_" style="fill:#B96E16;" points="-286.9,279.3 -303.6,256.7 -270.2,256.7 		"/>
	</g>
	<g id="XMLID_314_">
		<polygon id="XMLID_315_" style="fill:#B96E16;" points="-320,279.3 -336.7,256.7 -303.4,256.7 		"/>
	</g>
	<g id="XMLID_310_">
		<polygon id="XMLID_311_" style="fill:#B96E16;" points="-303.5,336.9 -320,279 -286.7,279 		"/>
	</g>
	<g id="XMLID_301_">
		<path id="XMLID_302_" style="fill:#B96E16;" d="M-282.9,248c-2.6,0.8-3.2,1.4-3.9,4c-0.8-2.6-1.4-3.3-3.9-4c2.6-0.8,3.2-1.4,3.9-4
			C-286.1,246.6-285.5,247.3-282.9,248z"/>
	</g>
	<g id="XMLID_292_">
		<path id="XMLID_298_" style="fill:#B96E16;" d="M-308.8,244c-3.6,1.1-4.4,2-5.5,5.6c-1.1-3.7-1.9-4.5-5.5-5.6
			c3.6-1.1,4.4-2,5.5-5.6C-313.2,242-312.4,242.9-308.8,244z"/>
	</g>
	<g id="XMLID_290_">
		<path id="XMLID_291_" style="fill:#B96E16;" d="M-289.6,231.7c-4.5,1.4-5.6,2.5-6.9,7.1c-1.3-4.6-2.4-5.7-6.9-7.1
			c4.5-1.4,5.6-2.5,6.9-7.1C-295.2,229.2-294.1,230.3-289.6,231.7z"/>
	</g>
</g>
<path id="Shape_2" style="fill:#FCD4A5;" d="M-231.3,231.2l-65.8-38.8c-1.6-1-4-1.5-6-1.5l0,0c-3,0-4.8,0.5-6.4,1.5l-65.7,38.8
	c-3.4,2-5.9,7-5.9,11v77.5c0,4,2.5,9,5.8,11l56.8,33.5l9.1,5.3c1.6,1,3.8,1.5,6.1,1.5c2.4,0,4.5-0.5,6.2-1.5l9.1-5.3l56.8-33.5
	c3.4-2,6.1-7,6.1-11v-77.5C-225.1,238.3-227.9,233.2-231.3,231.2z M-233.1,319.8c0,0.8-1.4,2.9-2.1,3.3l-66.2,38.8
	c-0.2,0.1-1,0.3-2,0.3s-1.8-0.2-1.9-0.3l-66-38.8c-0.7-0.4-1.8-2.5-1.8-3.3v-77.6c0-0.8,1.1-2.9,1.8-3.3l66.2-38.8
	c0.2-0.1,1-0.3,2-0.3l0,0c1,0,1.5,0.2,1.7,0.3l66.3,38.8c0.7,0.4,2,2.5,2,3.3V319.8z"/>
<path id="Shape_1_1_" style="fill:#7C4A0F;" d="M-226.2,222.6l-66-38.8c-3.1-1.8-7-2.8-11.1-2.8c-4.1,0-8,1-11.1,2.8l-65.8,38.8
	c-6.5,3.8-10.8,12.1-10.8,19.6v77.6c0,7.6,4.4,15.9,10.8,19.6l65.9,38.8c3.1,1.8,7,2.8,11,2.8s7.9-1,11-2.8l66.1-38.8
	c6.4-3.8,11.1-12,11.1-19.6V302l0.1-39v-20.8C-215,234.6-219.7,226.4-226.2,222.6z M-225,319.8c0,4-2.8,9-6.1,11l-66,38.8
	c-1.6,1-3.8,1.5-6.2,1.5c-2.4,0-4.6-0.5-6.2-1.5l-65.6-38.8c-3.4-2-5.8-7-5.8-11v-77.6c0-4,2.5-9,5.8-11l65.8-38.8
	c1.6-1,3.8-1.5,6.1-1.5c2.4,0,4.5,0.5,6.2,1.5l65.9,38.8c3.4,2,6.1,7,6.1,11V319.8z"/>
</svg>
