<?xml version="1.0" encoding="utf-8"?>
<!-- Generator: Adobe Illustrator 19.0.0, SVG Export Plug-In . SVG Version: 6.00 Build 0)  -->
<svg version="1.1" id="Layer_1" xmlns="http://www.w3.org/2000/svg" xmlns:xlink="http://www.w3.org/1999/xlink" x="0px" y="0px"
	 viewBox="-391 181 176 200" style="enable-background:new -391 181 176 200;" xml:space="preserve">
<path id="XMLID_2092_" style="fill:#FFFFFF;" d="M-233,242.2v77.6c0,0.8-1.3,2.9-2,3.3l-66.1,38.8c-0.2,0.1-0.9,0.3-1.9,0.3
	s-1.7-0.2-1.9-0.3l-66.1-38.8c-0.7-0.4-1.9-2.5-1.9-3.3v-77.6c0-0.8,1.2-2.9,1.9-3.3l66-38.8c0.2-0.1,0.9-0.3,1.9-0.3
	s1.7,0.2,1.9,0.3l66.2,38.8C-234.3,239.3-233,241.4-233,242.2z"/>
<path id="XMLID_12_" style="fill:#FFDAA5;" d="M-231.2,231.2l-65.8-38.9c-1.6-1-4-1.5-6-1.5l0,0c-3,0-4.8,0.5-6.4,1.5l-66.2,38.9
	c-3.4,2-6.4,7-6.4,11v20.1V302v17.8c0,4,3,9.1,6.3,11l66.1,38.8c1.6,1,3.9,1.5,6.3,1.5s4.6-0.5,6.3-1.5l65.9-38.8
	c3.4-2,6.2-7,6.2-11V302v-59.8C-225,238.2-227.8,233.2-231.2,231.2z M-233,302.1v17.8c0,0.8-1.4,2.9-2.1,3.3l-66.2,38.8
	c-0.2,0.1-1,0.3-2,0.3s-1.7-0.2-1.9-0.3l-66-38.8c-0.7-0.4-1.8-2.5-1.8-3.3v-17.8v-39.8v-20.1c0-0.8,1.1-2.9,1.8-3.3l66.2-38.8
	c0.2-0.1,1-0.3,2-0.3l0,0c1,0,1.5,0.2,1.7,0.3l66.2,38.8c0.7,0.4,2.1,2.5,2.1,3.3V302.1z"/>
<path id="XMLID_4_" style="fill:#5867DD;" d="M-226.2,222.5l-66-38.8c-3.1-1.8-7-2.8-11.1-2.8s-8,1-11.1,2.8l-65.7,38.9
	c-6.5,3.8-10.9,12-10.9,19.6v77.5c0,7.6,4.4,15.9,10.8,19.7l65.9,38.9c3.1,1.8,7,2.8,11,2.8s7.9-1,11-2.8l66.1-38.9
	c6.4-3.8,11.1-12,11.1-19.7v-17.8l0.1-40v-19.7C-215,234.6-219.7,226.3-226.2,222.5z M-224.9,262.3L-224.9,262.3l-0.1,57.5
	c0,4-2.8,9.1-6.1,11l-66,38.8c-1.6,1-3.8,1.5-6.2,1.5s-4.6-0.5-6.2-1.5l-66.2-38.7c-3.4-2-6.3-7-6.3-11v-77.7c0-4,3-9,6.3-11
	l66.1-38.8c1.6-1,3.9-1.5,6.3-1.5s4.6,0.5,6.3,1.5l65.9,38.8c3.4,2,6.2,7,6.2,11V262.3L-224.9,262.3z"/>
<path id="XMLID_38_" style="fill:#FBAA26;" d="M-260.7,232.5c-13.5,0-24.5-11-24.5-24.5s11-24.5,24.5-24.5s24.5,11,24.5,24.5
	S-247.1,232.5-260.7,232.5z"/>
<path id="XMLID_35_" style="fill:#FFFFFF;" d="M-260.7,186c12.1,0,22,9.9,22,22s-9.9,22-22,22s-22-9.9-22-22S-272.8,186-260.7,186
	 M-260.7,181c-14.9,0-27,12.1-27,27s12.1,27,27,27c14.9,0,27-12.1,27-27S-245.7,181-260.7,181L-260.7,181z"/>
<text id="XMLID_23_" transform="matrix(1 0 0 1 -268.8247 219.8357)" style="fill:#FFFFFF; font-family:'Rubik-Medium'; font-size:34px;">1</text>
<path style="fill:#FBAA26;" d="M-255.5,275c0-1-0.4-1.5-1.4-1.5h-18.4l-16.1-28.3c-1.2,0.9-2.6,1.4-4.2,1.4l15.2,27h-44.8l15.3-27.1
	c3.4,0,6.2-2.4,7-5.5c0-0.1,0-0.1,0.1-0.2c0,0.1,0,0.1,0,0.2c0.9,3.2,3.7,5.6,7.1,5.6c1.6,0,3-0.6,4.2-1.4c1.9-1.4,3.1-3.6,3.1-6.2
	c0-4.1-3.3-7.5-7.3-7.5c-3.4,0-6.2,2.3-7.1,5.5c-0.8-3.2-3.7-5.5-7.1-5.5c-4,0-7.3,3.4-7.3,7.5c0,2.5,1.2,4.8,3.1,6.1l0,0
	l-16.1,28.4h-18.5c-1,0-1.8,0.5-1.8,1.5v3.5h2l4.1,38.1c0.7,7.9,7.1,13.9,14.8,13.9h53.7c7.7,0,14.1-6,14.8-13.9l4.1-38.1h1.5V275z
	 M-295.7,235c2.1,0,3.8,1.7,3.8,3.9c0,2.1-1.7,3.9-3.8,3.9s-3.8-1.7-3.8-3.9C-299.5,236.8-297.8,235-295.7,235z M-309.8,235
	c2.1,0,3.8,1.7,3.8,3.9c-0.1,2.1-1.7,3.9-3.8,3.9s-3.8-1.7-3.8-3.9C-313.6,236.8-311.9,235-309.8,235z M-328.2,324.8
	c0,1.2-0.9,2.1-2.1,2.1c-1.1,0-2.1-1-2.1-2.1v-34.2c0-1.2,0.9-2.1,2.1-2.1c1.1,0,2.1,1,2.1,2.1V324.8z M-317.3,324.8
	c0,1.2-0.9,2.1-2.1,2.1c-1.1,0-2.1-1-2.1-2.1v-34.2c0-1.2,0.9-2.1,2.1-2.1c1.1,0,2.1,1,2.1,2.1V324.8z M-306.5,324.8
	c0,1.2-0.9,2.1-2.1,2.1c-1.1,0-2.1-1-2.1-2.1v-34.2c0-1.2,0.9-2.1,2.1-2.1c1.1,0,2.1,1,2.1,2.1V324.8z M-295.6,324.8
	c0,1.2-0.9,2.1-2.1,2.1c-1.1,0-2.1-1-2.1-2.1v-34.2c0-1.2,0.9-2.1,2.1-2.1c1.1,0,2.1,1,2.1,2.1V324.8z M-284.7,324.8
	c0,1.2-0.9,2.1-2.1,2.1c-1.1,0-2.1-1-2.1-2.1v-34.2c0-1.2,0.9-2.1,2.1-2.1c1.1,0,2.1,1,2.1,2.1V324.8z M-273.8,324.8
	c0,1.2-0.9,2.1-2.1,2.1c-1.1,0-2.1-1-2.1-2.1v-34.2c0-1.2,0.9-2.1,2.1-2.1c1.1,0,2.1,1,2.1,2.1V324.8z"/>
</svg>
