<?xml version="1.0" encoding="utf-8"?>
<!-- Generator: Adobe Illustrator 19.0.0, SVG Export Plug-In . SVG Version: 6.00 Build 0)  -->
<svg version="1.1" id="Layer_1" xmlns="http://www.w3.org/2000/svg" xmlns:xlink="http://www.w3.org/1999/xlink" x="0px" y="0px"
	 viewBox="-11 0 176 200" style="enable-background:new -11 0 176 200;" xml:space="preserve">
<style type="text/css">
	.st0{fill:#FFFFFF;}
	.st1{fill:#FFDAA5;}
	.st2{fill:#5867DD;}
	.st3{fill:#FBAA26;}
	.st4{font-family:'Rubik-Medium';}
	.st5{font-size:34px;}
</style>
<path id="XMLID_2092_" class="st0" d="M147,61.2v77.6c0,0.8-1.3,2.9-2,3.3l-66.1,38.8c-0.2,0.1-0.9,0.3-1.9,0.3s-1.7-0.2-1.9-0.3
	L9,142.1c-0.7-0.4-1.9-2.5-1.9-3.3V61.2c0-0.8,1.2-2.9,1.9-3.3l66-38.8c0.2-0.1,0.9-0.3,1.9-0.3s1.7,0.2,1.9,0.3L145,57.9
	C145.7,58.3,147,60.4,147,61.2z"/>
<path id="XMLID_12_" class="st1" d="M148.8,50.2L83,11.3c-1.6-1-4-1.5-6-1.5l0,0c-3,0-4.8,0.5-6.4,1.5L4.4,50.2c-3.4,2-6.4,7-6.4,11
	v20.1V121v17.8c0,4,3,9.1,6.3,11l66.1,38.8c1.6,1,3.9,1.5,6.3,1.5s4.6-0.5,6.3-1.5l65.9-38.8c3.4-2,6.2-7,6.2-11V121V61.2
	C155,57.2,152.2,52.2,148.8,50.2z M147,121.1v17.8c0,0.8-1.4,2.9-2.1,3.3L78.7,181c-0.2,0.1-1,0.3-2,0.3s-1.7-0.2-1.9-0.3l-66-38.8
	c-0.7-0.4-1.8-2.5-1.8-3.3v-17.8V81.3V61.2c0-0.8,1.1-2.9,1.8-3.3L75,19.1c0.2-0.1,1-0.3,2-0.3l0,0c1,0,1.5,0.2,1.7,0.3l66.2,38.8
	c0.7,0.4,2.1,2.5,2.1,3.3V121.1z"/>
<path id="XMLID_4_" class="st2" d="M153.8,41.5l-66-38.8c-3.1-1.8-7-2.8-11.1-2.8s-8,1-11.1,2.8L-0.1,41.6
	C-6.6,45.4-11,53.6-11,61.2v77.5c0,7.6,4.4,15.9,10.8,19.7l65.9,38.9c3.1,1.8,7,2.8,11,2.8s7.9-1,11-2.8l66.1-38.9
	c6.4-3.8,11.1-12,11.1-19.7v-17.8l0.1-40V61.2C165,53.6,160.3,45.3,153.8,41.5z M155.1,81.3L155.1,81.3l-0.1,57.5
	c0,4-2.8,9.1-6.1,11l-66,38.8c-1.6,1-3.8,1.5-6.2,1.5c-2.4,0-4.6-0.5-6.2-1.5L4.3,149.9c-3.4-2-6.3-7-6.3-11V61.2c0-4,3-9,6.3-11
	l66.1-38.8c1.6-1,3.9-1.5,6.3-1.5s4.6,0.5,6.3,1.5l65.9,38.8c3.4,2,6.2,7,6.2,11V81.3L155.1,81.3z"/>
<path id="XMLID_38_" class="st3" d="M119.3,51.5c-13.5,0-24.5-11-24.5-24.5s11-24.5,24.5-24.5s24.5,11,24.5,24.5
	S132.9,51.5,119.3,51.5z"/>
<path id="XMLID_35_" class="st0" d="M119.3,5c12.1,0,22,9.9,22,22s-9.9,22-22,22s-22-9.9-22-22S107.2,5,119.3,5 M119.3,0
	c-14.9,0-27,12.1-27,27s12.1,27,27,27s27-12.1,27-27S134.3,0,119.3,0L119.3,0z"/>
<text id="XMLID_23_" transform="matrix(1 0 0 1 108.523 38.8357)" class="st0 st4 st5">2</text>
<path class="st3" d="M124.5,94c0-1-0.4-1.5-1.4-1.5h-18.4L88.6,64.2c-1.2,0.9-2.6,1.4-4.2,1.4l15.2,27H54.8l15.3-27.1
	c3.4,0,6.2-2.4,7-5.5c0-0.1,0-0.1,0.1-0.2c0,0.1,0,0.1,0,0.2c0.9,3.2,3.7,5.6,7.1,5.6c1.6,0,3-0.6,4.2-1.4c1.9-1.4,3.1-3.6,3.1-6.2
	c0-4.1-3.3-7.5-7.3-7.5c-3.4,0-6.2,2.3-7.1,5.5c-0.8-3.2-3.7-5.5-7.1-5.5c-4,0-7.3,3.4-7.3,7.5c0,2.5,1.2,4.8,3.1,6.1c0,0,0,0,0,0
	L49.8,92.5H31.3c-1,0-1.8,0.5-1.8,1.5v3.5h2l4.1,38.1c0.7,7.9,7.1,13.9,14.8,13.9h53.7c7.7,0,14.1-6,14.8-13.9l4.1-38.1h1.5V94z
	 M84.3,54c2.1,0,3.8,1.7,3.8,3.9c0,2.1-1.7,3.9-3.8,3.9c-2.1,0-3.8-1.7-3.8-3.9C80.5,55.8,82.2,54,84.3,54z M70.2,54
	c2.1,0,3.8,1.7,3.8,3.9c-0.1,2.1-1.7,3.9-3.8,3.9c-2.1,0-3.8-1.7-3.8-3.9C66.4,55.8,68.1,54,70.2,54z M51.8,143.8
	c0,1.2-0.9,2.1-2.1,2.1c-1.1,0-2.1-1-2.1-2.1v-34.2c0-1.2,0.9-2.1,2.1-2.1c1.1,0,2.1,1,2.1,2.1V143.8z M62.7,143.8
	c0,1.2-0.9,2.1-2.1,2.1c-1.1,0-2.1-1-2.1-2.1v-34.2c0-1.2,0.9-2.1,2.1-2.1c1.1,0,2.1,1,2.1,2.1V143.8z M73.5,143.8
	c0,1.2-0.9,2.1-2.1,2.1c-1.1,0-2.1-1-2.1-2.1v-34.2c0-1.2,0.9-2.1,2.1-2.1c1.1,0,2.1,1,2.1,2.1V143.8z M84.4,143.8
	c0,1.2-0.9,2.1-2.1,2.1c-1.1,0-2.1-1-2.1-2.1v-34.2c0-1.2,0.9-2.1,2.1-2.1c1.1,0,2.1,1,2.1,2.1V143.8z M95.3,143.8
	c0,1.2-0.9,2.1-2.1,2.1c-1.1,0-2.1-1-2.1-2.1v-34.2c0-1.2,0.9-2.1,2.1-2.1c1.1,0,2.1,1,2.1,2.1V143.8z M106.2,143.8
	c0,1.2-0.9,2.1-2.1,2.1c-1.1,0-2.1-1-2.1-2.1v-34.2c0-1.2,0.9-2.1,2.1-2.1c1.1,0,2.1,1,2.1,2.1V143.8z"/>
</svg>
