<?xml version="1.0" encoding="utf-8"?>
<!-- Generator: Adobe Illustrator 19.0.0, SVG Export Plug-In . SVG Version: 6.00 Build 0)  -->
<svg version="1.1" id="Layer_1" xmlns="http://www.w3.org/2000/svg" xmlns:xlink="http://www.w3.org/1999/xlink" x="0px" y="0px"
	 viewBox="-391 181 176 200" style="enable-background:new -391 181 176 200;" xml:space="preserve">
<path id="XMLID_2092_" style="fill:#FFFFFF;" d="M-233,242.2v77.6c0,0.8-1.3,2.9-2,3.3l-66.1,38.8c-0.2,0.1-0.9,0.3-1.9,0.3
	s-1.7-0.2-1.9-0.3l-66.1-38.8c-0.7-0.4-1.9-2.5-1.9-3.3v-77.6c0-0.8,1.2-2.9,1.9-3.3l66-38.8c0.2-0.1,0.9-0.3,1.9-0.3
	s1.7,0.2,1.9,0.3l66.2,38.8C-234.3,239.3-233,241.4-233,242.2z"/>
<path id="XMLID_12_" style="fill:#FCE2B7;" d="M-231.2,231.2l-65.8-38.9c-1.6-1-4-1.5-6-1.5l0,0c-3,0-4.8,0.5-6.4,1.5l-66.2,38.9
	c-3.4,2-6.4,7-6.4,11v20.1V302v17.8c0,4,3,9.1,6.3,11l66.1,38.8c1.6,1,3.9,1.5,6.3,1.5s4.6-0.5,6.3-1.5l65.9-38.8
	c3.4-2,6.2-7,6.2-11V302v-59.8C-225,238.2-227.8,233.2-231.2,231.2z M-233,302.1v17.8c0,0.8-1.4,2.9-2.1,3.3l-66.2,38.8
	c-0.2,0.1-1,0.3-2,0.3s-1.7-0.2-1.9-0.3l-66-38.8c-0.7-0.4-1.8-2.5-1.8-3.3v-17.8v-39.8v-20.1c0-0.8,1.1-2.9,1.8-3.3l66.2-38.8
	c0.2-0.1,1-0.3,2-0.3l0,0c1,0,1.5,0.2,1.7,0.3l66.2,38.8c0.7,0.4,2.1,2.5,2.1,3.3V302.1z"/>
<path id="XMLID_4_" style="fill:#5867DD;" d="M-226.2,222.5l-66-38.8c-3.1-1.8-7-2.8-11.1-2.8s-8,1-11.1,2.8l-65.7,38.9
	c-6.5,3.8-10.9,12-10.9,19.6v77.5c0,7.6,4.4,15.9,10.8,19.7l65.9,38.9c3.1,1.8,7,2.8,11,2.8s7.9-1,11-2.8l66.1-38.9
	c6.4-3.8,11.1-12,11.1-19.7v-17.8l0.1-40v-19.7C-215,234.6-219.7,226.3-226.2,222.5z M-224.9,262.3L-224.9,262.3l-0.1,57.5
	c0,4-2.8,9.1-6.1,11l-66,38.8c-1.6,1-3.8,1.5-6.2,1.5s-4.6-0.5-6.2-1.5l-66.2-38.7c-3.4-2-6.3-7-6.3-11v-77.7c0-4,3-9,6.3-11
	l66.1-38.8c1.6-1,3.9-1.5,6.3-1.5s4.6,0.5,6.3,1.5l65.9,38.8c3.4,2,6.2,7,6.2,11V262.3L-224.9,262.3z"/>
<g>
	<path style="fill:#F8B64C;" d="M-302.4,239.6c0.6-2.1,1.1-2.6,3.1-3.2c-2-0.6-2.5-1.1-3.1-3.2c-0.6,2.1-1.1,2.6-3.1,3.2
		C-303.5,236.9-303,237.4-302.4,239.6z"/>
	<path style="fill:#F8B64C;" d="M-287.2,231.3c0.7-2.3,1.2-2.8,3.4-3.5c-2.2-0.7-2.7-1.3-3.4-3.5c-0.7,2.3-1.2,2.8-3.4,3.5
		C-288.4,228.4-287.9,228.9-287.2,231.3z"/>
	<path style="fill:#F8B64C;" d="M-318.5,238.4c0.9-3.4,1.7-4.2,5-5.2c-3.3-1-4.1-1.8-5-5.2c-0.9,3.4-1.7,4.2-5,5.2
		C-320.3,234.1-319.5,235.1-318.5,238.4z"/>
	<path style="fill:#F8B64C;" d="M-273.1,252.8v-3h0.4v-3h0.2c1.4,0,2.3-1.2,2.3-2.4c0.1-1.4-0.9-2.6-2.3-2.6h-61
		c-1.4,0-2.3,1.2-2.3,2.4c0,1.2,0.7,2.2,1.7,2.5v6.1h-15.8v8.2c0,20,12.1,37.2,29.1,44.4c2,0.9,4,1.5,6.1,2.1c2.2,1.7,4.5,3.1,7,4.4
		l-1,2.3c0.1,0,0.1,0.1,0.2,0.1l-0.1,0.1l-3,6.4h-10.9c-2.2,0-3.9,1.8-3.9,4v13h46.7v-13c0.2-2.2-1.6-4-3.7-4h-11l-2.9-6.4l-1.2-2.9
		c2-1.1,3.8-2.3,5.6-3.6c2.7-0.6,5.2-1.4,7.7-2.5c17-7.2,29.1-24.4,29.1-44.4v-8.2L-273.1,252.8L-273.1,252.8z M-333.1,286.4
		c-5.5-6.8-9-15.8-9-25.4v-0.2h8v7.4c0,8.2,2,16.1,5.7,23.1C-330.1,289.7-331.7,288.1-333.1,286.4z M-293.2,292.3l-9.6-7.3l-9.6,7.3
		l3.6-11.7l-9.8-7.2h12l3.7-11.7l3.8,11.7h12l-9.6,7.3L-293.2,292.3z M-272.9,286.4c-2,2.4-4.2,4.6-6.7,6.5
		c4.2-7.3,6.5-15.7,6.5-24.5v-7.6h9v0.2h0.2C-263.9,270.6-267.2,279.4-272.9,286.4z"/>
</g>
</svg>
