<?xml version="1.0" encoding="utf-8"?>
<!-- Generator: Adobe Illustrator 19.0.0, SVG Export Plug-In . SVG Version: 6.00 Build 0)  -->
<svg version="1.1" id="Layer_1" xmlns="http://www.w3.org/2000/svg" xmlns:xlink="http://www.w3.org/1999/xlink" x="0px" y="0px"
	 viewBox="-391 181 176 200" style="enable-background:new -391 181 176 200;" xml:space="preserve">
<path id="XMLID_2092_" style="fill:#FFFFFF;" d="M-233,242.2v77.6c0,0.8-1.3,2.9-2,3.3l-66.1,38.8c-0.2,0.1-0.9,0.3-1.9,0.3
	s-1.7-0.2-1.9-0.3l-66.1-38.8c-0.7-0.4-1.9-2.5-1.9-3.3v-77.6c0-0.8,1.2-2.9,1.9-3.3l66-38.8c0.2-0.1,0.9-0.3,1.9-0.3
	s1.7,0.2,1.9,0.3l66.2,38.8C-234.3,239.3-233,241.4-233,242.2z"/>
<path id="XMLID_12_" style="fill:#AEE5DA;" d="M-231.2,231.2l-65.8-38.9c-1.6-1-4-1.5-6-1.5l0,0c-3,0-4.8,0.5-6.4,1.5l-66.2,38.9
	c-3.4,2-6.4,7-6.4,11v20.1V302v17.8c0,4,3,9.1,6.3,11l66.1,38.8c1.6,1,3.9,1.5,6.3,1.5s4.6-0.5,6.3-1.5l65.9-38.8
	c3.4-2,6.2-7,6.2-11V302v-59.8C-225,238.2-227.8,233.2-231.2,231.2z M-233,302.1v17.8c0,0.8-1.4,2.9-2.1,3.3l-66.2,38.8
	c-0.2,0.1-1,0.3-2,0.3s-1.7-0.2-1.9-0.3l-66-38.8c-0.7-0.4-1.8-2.5-1.8-3.3v-17.8v-39.8v-20.1c0-0.8,1.1-2.9,1.8-3.3l66.2-38.8
	c0.2-0.1,1-0.3,2-0.3l0,0c1,0,1.5,0.2,1.7,0.3l66.2,38.8c0.7,0.4,2.1,2.5,2.1,3.3V302.1z"/>
<path id="XMLID_4_" style="fill:#5867DD;" d="M-226.2,222.5l-66-38.8c-3.1-1.8-7-2.8-11.1-2.8s-8,1-11.1,2.8l-65.7,38.9
	c-6.5,3.8-10.9,12-10.9,19.6v77.5c0,7.6,4.4,15.9,10.8,19.7l65.9,38.9c3.1,1.8,7,2.8,11,2.8s7.9-1,11-2.8l66.1-38.9
	c6.4-3.8,11.1-12,11.1-19.7v-17.8l0.1-40v-19.7C-215,234.6-219.7,226.3-226.2,222.5z M-224.9,262.3L-224.9,262.3l-0.1,57.5
	c0,4-2.8,9.1-6.1,11l-66,38.8c-1.6,1-3.8,1.5-6.2,1.5s-4.6-0.5-6.2-1.5l-66.2-38.7c-3.4-2-6.3-7-6.3-11v-77.7c0-4,3-9,6.3-11
	l66.1-38.8c1.6-1,3.9-1.5,6.3-1.5s4.6,0.5,6.3,1.5l65.9,38.8c3.4,2,6.2,7,6.2,11V262.3L-224.9,262.3z"/>
<path id="XMLID_1829_" style="fill:#5867DD;" d="M-303.9,275.4c-0.8-0.2-1.6-0.3-2.4-0.3c-5,0-9,4.1-9,9.2c0,5.1,4,9.2,9,9.2
	s9-4.1,9-9.2c0-0.9-0.1-1.7-0.3-2.5l25.1-25.7l4.1,0.6l12.7-13l-9.6-1.3l-1.3-9.8l-12.7,13l0.5,4.2L-303.9,275.4z"/>
<g id="XMLID_1819_">
	<path id="XMLID_1826_" style="fill:#34BFA3;" d="M-305.3,266.6l7.4-7.6c-9.1-3.2-19.6-1-26.9,6.4c-10.2,10.4-10.2,27.4,0,37.8
		c10.2,10.4,26.8,10.4,37,0c7.3-7.4,9.4-18.2,6.3-27.5l-7.4,7.6c0.3,4.9-1.4,9.8-5,13.6c-6.8,6.9-17.8,6.9-24.5,0
		c-6.7-6.9-6.8-18.2,0-25.1C-314.9,268-310,266.3-305.3,266.6L-305.3,266.6z"/>
	<path id="XMLID_1823_" style="fill:#34BFA3;" d="M-275.1,269.1c6.1,13.1,3.8,29.2-6.8,40.1c-13.5,13.8-35.3,13.8-48.8,0
		c-13.5-13.8-13.5-36.1,0-49.9c10.6-10.9,26.4-13.1,39.2-6.9l7.1-7.3c-16.8-9.8-38.6-7.4-53,7.3c-17.2,17.6-17.2,46.2,0,63.8
		c17.2,17.6,45.1,17.6,62.3,0c14.4-14.7,16.7-37.1,7.1-54.3L-275.1,269.1z"/>
</g>
</svg>
