<?xml version="1.0" encoding="utf-8"?>
<!-- Generator: Adobe Illustrator 19.0.0, SVG Export Plug-In . SVG Version: 6.00 Build 0)  -->
<svg version="1.1" id="Layer_1" xmlns="http://www.w3.org/2000/svg" xmlns:xlink="http://www.w3.org/1999/xlink" x="0px" y="0px"
	 viewBox="-210.4 223.2 166 116.5" style="enable-background:new -210.4 223.2 166 116.5;" xml:space="preserve">
<style type="text/css">
	.st0{fill:#34BFA2;}
	.st1{opacity:0.3;fill:#34BFA2;enable-background:new    ;}
	.st2{opacity:0.1;fill:#34BFA2;enable-background:new    ;}
	.st3{fill:#FFFFFF;}
	.st4{fill:#5260CE;}
</style>
<g>
	<path id="XMLID_45_" class="st0" d="M-130.8,292.1v-5.5c0-0.2-0.1-0.5-0.3-0.6c-0.5-0.4-0.9-1-0.9-1.6v-5.7c0-2.4,2-4.5,4.5-4.5
		h1.3c2.4,0,4.5,2,4.5,4.5v5.7c0,0.6-0.3,1.2-0.9,1.6c-0.2,0.1-0.3,0.4-0.3,0.6v5.5c0,0.4,0.2,0.7,0.6,0.9c0.7,0.4,4.6,2.2,8.1,5.2
		c0.5,0.4,0.8,1,0.8,1.6v3.9c0,0.4,0.3,0.7,0.7,0.7c0.4,0,0.7-0.3,0.7-0.7v-4c0-1.1-0.5-2-1.3-2.7c-3.3-2.7-6.9-4.7-8.1-5.3v-4.9
		c0.8-0.6,1.2-1.6,1.2-2.5v-5.7c0-3.2-2.6-5.8-5.8-5.8h-1.3c-3.2,0-5.8,2.6-5.8,5.8v5.7c0,1,0.4,1.8,1.2,2.5v4.9
		c-1.2,0.6-4.8,2.4-8.1,5.3c-0.8,0.7-1.3,1.7-1.3,2.7v3.9c0,0.4,0.3,0.7,0.7,0.7s0.7-0.3,0.7-0.7v-3.9c0-0.6,0.3-1.2,0.8-1.6
		c3.5-2.9,7.3-4.8,8.1-5.2C-131,292.9-130.8,292.5-130.8,292.1z"/>
	<g id="XMLID_42_">
		<path id="XMLID_44_" class="st0" d="M-126.8,310.9L-126.8,310.9c-0.4,0-0.7-0.3-0.7-0.7v-10.8c0-0.4,0.3-0.7,0.7-0.7l0,0
			c0.4,0,0.7,0.3,0.7,0.7v10.8C-126.3,310.6-126.6,310.9-126.8,310.9z"/>
		<path id="XMLID_43_" class="st0" d="M-120.8,304.9L-120.8,304.9c0,0.4-0.3,0.7-0.7,0.7h-10.8c-0.4,0-0.7-0.3-0.7-0.7l0,0
			c0-0.4,0.3-0.7,0.7-0.7h10.8C-121.1,304.2-120.8,304.5-120.8,304.9z"/>
	</g>
	<g>
		<polygon id="XMLID_40_" class="st1" points="-164.4,277.1 -163.5,278.9 -161.5,279.2 -163,280.6 -162.5,282.6 -164.4,281.7 
			-166.2,282.6 -165.7,280.6 -167.2,279.2 -165.2,278.9 		"/>
		<polygon id="XMLID_39_" class="st1" points="-141.5,270.4 -140.7,272.1 -138.7,272.4 -140.2,273.7 -139.7,275.6 -141.5,274.7 
			-143.2,275.6 -142.9,273.7 -144.2,272.4 -142.4,272.1 		"/>
		<polygon id="XMLID_38_" class="st1" points="-150.7,280.1 -150.2,281.1 -149,281.4 -149.9,282.1 -149.7,283.2 -150.7,282.7 
			-151.5,283.2 -151.5,282.1 -152.2,281.4 -151,281.1 		"/>
		<polygon id="XMLID_37_" class="st1" points="-153.8,307.2 -153.3,308.2 -152.2,308.4 -153,309.2 -152.8,310.4 -153.8,309.9 
			-154.7,310.4 -154.6,309.2 -155.3,308.4 -154.2,308.2 		"/>
		<polygon id="XMLID_8_" class="st1" points="-155.3,292.5 -154.8,293.5 -153.7,293.7 -154.5,294.5 -154.3,295.6 -155.3,295.1 
			-156.2,295.6 -156.1,294.5 -156.8,293.7 -155.7,293.5 		"/>
		<polygon id="XMLID_36_" class="st1" points="-165.2,299.1 -164.1,301.2 -162,302.4 -164.1,303.6 -165.2,305.7 -166.4,303.6 
			-168.5,302.4 -166.4,301.2 		"/>
		<polygon id="XMLID_35_" class="st1" points="-144.6,289.1 -144,290.2 -142.9,290.9 -144,291.4 -144.6,292.5 -145.2,291.4 
			-146.3,290.9 -145.2,290.2 		"/>
		<polygon id="XMLID_9_" class="st1" points="-88,278.9 -86.1,279.2 -87.5,280.6 -87.1,282.6 -88.9,281.7 -90.7,282.6 -90.3,280.6 
			-91.8,279.2 -89.8,278.9 -88.9,277.1 		"/>
		<polygon id="XMLID_7_" class="st1" points="-110.9,272.1 -109.1,272.4 -110.4,273.7 -110.1,275.6 -111.8,274.7 -113.5,275.6 
			-113.1,273.7 -114.5,272.4 -112.6,272.1 -111.8,270.4 		"/>
		<polygon id="XMLID_5_" class="st1" points="-102.2,281.1 -101.1,281.4 -101.8,282.1 -101.7,283.2 -102.6,282.7 -103.6,283.2 
			-103.4,282.1 -104.2,281.4 -103.1,281.1 -102.6,280.1 		"/>
		<polygon id="XMLID_4_" class="st1" points="-99,308.2 -97.9,308.4 -98.6,309.2 -98.5,310.4 -99.4,309.9 -100.4,310.4 
			-100.2,309.2 -101,308.4 -99.9,308.2 -99.4,307.2 		"/>
		<polygon id="XMLID_3_" class="st1" points="-97.5,293.5 -96.4,293.7 -97.1,294.5 -97,295.6 -97.9,295.1 -98.9,295.6 -98.7,294.5 
			-99.5,293.7 -98.4,293.5 -97.9,292.5 		"/>
		<polygon id="XMLID_2_" class="st1" points="-86.9,301.2 -84.7,302.4 -86.9,303.6 -88,305.7 -89.1,303.6 -91.2,302.4 -89.1,301.2 
			-88,299.1 		"/>
		<polygon id="XMLID_1_" class="st1" points="-108,290.2 -107,290.9 -108,291.4 -108.7,292.5 -109.2,291.4 -110.4,290.9 
			-109.2,290.2 -108.7,289.1 		"/>
	</g>
	<path id="XMLID_158_" class="st1" d="M-47,241.3h-161c-0.6,0-1-0.4-1-1v-15.1c0-0.6,0.4-1,1-1h161c0.6,0,1,0.4,1,1v15.1
		C-46,240.8-46.5,241.3-47,241.3z"/>
	<path id="XMLID_157_" class="st2" d="M-45.5,243.2v83h-26v-63.4c0-1-1.4-1.6-2.3-1.6h-107.5c-1,0-2.2,0.7-2.2,1.6v58.4l0,0v5h-25
		v-84h163C-45.4,242.2-45.4,243.2-45.5,243.2z"/>
	<g id="XMLID_154_">
		<path id="XMLID_155_" class="st0" d="M-49,223.2h-157c-2.4,0-4.4,1.6-4.4,4v96c0,2.4,2,5,4.4,5h31.6v-2H-206c-1,0-2.4-2.1-2.4-3
			v-96c0-1,1.4-2,2.4-2h157c1,0,2.6,1,2.6,2v96c0,1-1.7,3-2.6,3h-22.4v2H-49c2.3,0,4.6-2.7,4.6-5v-96
			C-44.5,224.8-46.7,223.2-49,223.2z"/>
	</g>
	<rect id="XMLID_153_" x="-208.6" y="241.3" class="st0" width="163" height="2.2"/>
	<circle id="XMLID_109_" class="st3" cx="-198" cy="233.5" r="3.3"/>
	<circle id="XMLID_105_" class="st3" cx="-188" cy="233.2" r="3.3"/>
	<circle id="XMLID_102_" class="st3" cx="-179" cy="233.2" r="3.3"/>
	<path id="XMLID_100_" class="st3" d="M-56.2,236.8h-87.7c-1.9,0-3.5-1.6-3.5-3.5l0,0c0-1.9,1.6-3.5,3.5-3.5h87.7
		c1.9,0,3.5,1.6,3.5,3.5l0,0C-52.7,235.3-54.2,236.8-56.2,236.8z"/>
	<g id="XMLID_13_">
		<path class="st3" d="M-144.6,326.9L-144.6,326.9L-144.6,326.9L-144.6,326.9z"/>
	</g>
	<g id="XMLID_89_">
		<path class="st3" d="M-108.5,326.9v0.1V326.9L-108.5,326.9z"/>
	</g>
	<g id="XMLID_12_">
		<path class="st3" d="M-108.4,327.1"/>
	</g>
	<g id="XMLID_11_">
		<circle class="st4" cx="-126.6" cy="327.6" r="12.1"/>
	</g>
	<path class="st4" d="M-71.5,259.2H-183c-1.3,0-2.3,0.3-2.3,1.5v60.1v5v2.4h2l0,0c0.1,0,0.2,0,0.3,0h38.5c0,0,0.1-0.3,0.1-0.4
		c0-0.2,0.1-0.5,0.1-0.7V327c0-0.2-0.1-0.5-0.1-0.7v-0.1h-38.9v-65h112v59.6v5.4h-37c0,0,0,0.2,0,0.3s0,1.7,0,1.7h36.8
		c0.1,0,0.1,0,0.2,0l0,0h2v-2.4v-5v-60.1C-69.5,259.5-70.3,259.2-71.5,259.2z"/>
	<g>
		<path class="st3" d="M-126.6,332.4c0-0.1-0.1-0.1-0.1-0.2v-6.8l-2,1.5c-0.1,0-0.1,0.1-0.2,0.1c-0.1,0-0.1,0-0.2-0.1l-0.3-0.4
			c0-0.1-0.1-0.1-0.1-0.2c0-0.1,0-0.2,0.1-0.2l2.6-2c0.1-0.1,0.2-0.1,0.3-0.1h0.6c0.1,0,0.1,0,0.2,0.1c0.1,0.1,0.1,0.1,0.1,0.2v7.8
			c0,0.1,0,0.1-0.1,0.2c-0.1,0.1-0.1,0.1-0.2,0.1h-0.6C-126.5,332.5-126.5,332.4-126.6,332.4z"/>
	</g>
</g>
</svg>
