<?xml version="1.0" encoding="utf-8"?>
<!-- Generator: Adobe Illustrator 19.0.0, SVG Export Plug-In . SVG Version: 6.00 Build 0)  -->
<svg version="1.1" id="Layer_1" xmlns="http://www.w3.org/2000/svg" xmlns:xlink="http://www.w3.org/1999/xlink" x="0px" y="0px"
	 viewBox="-210.4 223.2 166 116.5" style="enable-background:new -210.4 223.2 166 116.5;" xml:space="preserve">
<style type="text/css">
	.st0{fill:#34BFA2;}
	.st1{opacity:0.3;fill:#5260CE;enable-background:new    ;}
	.st2{opacity:0.3;fill:#34BFA2;enable-background:new    ;}
	.st3{opacity:0.1;fill:#34BFA2;enable-background:new    ;}
	.st4{fill:#FFFFFF;}
	.st5{fill:#5260CE;}
</style>
<g>
	<path id="XMLID_71_" class="st0" d="M-112.8,293.5h-5.5c-0.3,0-0.5,0.3-0.5,0.5v0.5h-4.2c-0.5,0-1.1,0.2-1.5,0.4l-4.2,2.8h-4.3
		c-0.8,0-1.5,0.4-1.9,1.1c-0.4,0.5-0.4,1.2-0.4,1.9l-6.7-2.1c-0.4-0.2-1-0.2-1.4,0c-0.9,0.3-1.4,1.1-1.4,2c0,0.9,0.5,1.6,1.3,1.9
		l11.8,5c1,0.4,1.9,0.6,3,0.6h0.2c0.8,0,1.6-0.1,2.4-0.4l7.4-2.6v0.9c0,0.3,0.3,0.5,0.5,0.5h5.5c0.3,0,0.5-0.3,0.5-0.5v-11.9
		C-112.2,293.7-112.5,293.5-112.8,293.5z M-126.5,306.7c-0.7,0.3-1.3,0.4-2,0.4h-0.2c-0.9,0-1.8-0.2-2.6-0.5l-11.8-5
		c-0.4-0.2-0.6-0.5-0.6-1c0-0.4,0.3-0.8,0.7-1c0.3-0.1,0.4-0.1,0.7,0l7.8,2.5l0,0c0.2,0.2,0.4,0.4,0.7,0.4l0,0
		c0.1,0,0.3,0.1,0.4,0.1h0.1c0.1,0,0.3,0,0.4,0h8.1v-1.1h-8.1c-0.1,0-0.2,0-0.3,0h-0.1c-0.1,0-0.1-0.1-0.2-0.1c0,0-0.1,0-0.1-0.1
		c-0.1,0-0.1-0.1-0.2-0.2c0,0,0,0-0.1-0.1l0,0c-0.1-0.1-0.2-0.2-0.2-0.3l-0.2-0.3c-0.2-0.4-0.2-0.9,0.1-1.2c0.3-0.3,0.6-0.5,1-0.5
		h4.5c0.1,0,0.2,0,0.3-0.1l4.3-2.9c0.3-0.2,0.6-0.3,0.9-0.3h4.2v8.3L-126.5,306.7z M-113.4,305.5h-4.3v-10.8h4.3V305.5z"/>
	<path id="XMLID_61_" class="st0" d="M-118.7,288.1c0,1.2,1,2.2,2.2,2.2s2.2-1,2.2-2.2s-1-2.2-2.2-2.2
		C-117.8,285.9-118.7,286.9-118.7,288.1z M-115.5,288.1c0,0.6-0.5,1.1-1.1,1.1c-0.5,0-1.1-0.5-1.1-1.1c0-0.5,0.5-1.1,1.1-1.1
		S-115.5,287.4-115.5,288.1z"/>
	<path id="XMLID_58_" class="st0" d="M-124.2,278.2c-1.2,0-2.2,1-2.2,2.2s1,2.2,2.2,2.2s2.2-1,2.2-2.2S-123,278.2-124.2,278.2z
		 M-124.2,281.6c-0.6,0-1.1-0.5-1.1-1.1c0-0.6,0.5-1.1,1.1-1.1s1.1,0.5,1.1,1.1C-123.1,281.1-123.6,281.6-124.2,281.6z"/>
	
		<rect id="XMLID_57_" x="-128" y="283.7" transform="matrix(-0.7071 0.7071 -0.7071 -0.7071 -4.4295 570.3069)" class="st0" width="15.3" height="1.1"/>
	<path id="XMLID_54_" class="st0" d="M-136.1,275.5c-4.8,0-8.6,3.9-8.6,8.6c0,4.8,3.9,8.6,8.6,8.6c4.8,0,8.6-3.9,8.6-8.6
		S-131.3,275.5-136.1,275.5z M-136.1,291.8c-4.2,0-7.6-3.4-7.6-7.6s3.4-7.6,7.6-7.6c4.2,0,7.6,3.4,7.6,7.6S-131.9,291.8-136.1,291.8
		z"/>
	<path id="XMLID_50_" class="st0" d="M-134,282.1h1.1c0-1.6-1.1-2.9-2.7-3.2v-1.1h-1.1v1.1c-1.5,0.3-2.7,1.6-2.7,3.2
		c0,0.2,0.1,0.4,0.2,0.4l2.5,2v4c-1-0.3-1.6-1.1-1.6-2.1h-1.1c0,1.6,1.1,2.9,2.7,3.2v1.1h1.1v-1.1c1.5-0.3,2.7-1.6,2.7-3.2
		c0-0.2-0.1-0.4-0.2-0.4l-2.5-2v-4C-134.5,280.3-134,281.1-134,282.1z M-134,286.6c-0.1,0.9-0.8,1.6-1.6,1.9v-3.1L-134,286.6z
		 M-138.3,281.8c0.1-0.9,0.8-1.6,1.6-1.9v3.2L-138.3,281.8z"/>
	<g>
		<polygon id="XMLID_39_" class="st1" points="-87.6,277.3 -88.5,279.2 -90.4,279.3 -89,280.8 -89.3,282.8 -87.6,281.8 -85.8,282.8 
			-86.1,280.8 -84.7,279.3 -86.7,279.2 		"/>
		<polygon id="XMLID_38_" class="st1" points="-107.4,269.6 -108.3,271.3 -110.2,271.6 -108.8,272.8 -109.1,274.8 -107.4,273.8 
			-105.8,274.8 -106.1,272.8 -104.7,271.6 -106.6,271.3 		"/>
		<polygon id="XMLID_37_" class="st1" points="-99.3,282.3 -99.8,283.3 -100.9,283.4 -100.1,284.3 -100.3,285.3 -99.3,284.8 
			-98.3,285.3 -98.5,284.3 -97.7,283.4 -98.8,283.3 		"/>
		<polygon id="XMLID_36_" class="st1" points="-103.3,305.3 -103.8,306.3 -104.9,306.4 -104.1,307.3 -104.3,308.3 -103.3,307.8 
			-102.3,308.3 -102.5,307.3 -101.7,306.4 -102.8,306.3 		"/>
		<polygon id="XMLID_35_" class="st1" points="-90.8,300.3 -92,302.3 -94.1,303.4 -92,304.7 -90.8,306.8 -89.7,304.7 -87.6,303.4 
			-89.7,302.3 		"/>
		<polygon id="XMLID_34_" class="st1" points="-101.8,293.8 -102.4,294.8 -103.5,295.4 -102.4,296.1 -101.8,297.2 -101.2,296.1 
			-100.1,295.4 -101.2,294.8 		"/>
		<polygon id="XMLID_33_" class="st1" points="-169.3,277.3 -168.3,279.2 -166.5,279.3 -167.8,280.8 -167.5,282.8 -169.3,281.8 
			-171.1,282.8 -170.7,280.8 -172.2,279.3 -170.2,279.2 		"/>
		<polygon id="XMLID_32_" class="st1" points="-149.3,269.6 -148.6,271.3 -146.7,271.6 -148.1,272.8 -147.8,274.8 -149.3,273.8 
			-151.1,274.8 -150.8,272.8 -152.2,271.6 -150.3,271.3 		"/>
		<polygon id="XMLID_31_" class="st1" points="-157.6,282.3 -157.1,283.3 -156,283.4 -156.8,284.3 -156.6,285.3 -157.6,284.8 
			-158.6,285.3 -158.3,284.3 -159.2,283.4 -158.1,283.3 		"/>
		<polygon id="XMLID_30_" class="st1" points="-153.6,305.3 -153.1,306.3 -152,306.4 -152.8,307.3 -152.6,308.3 -153.6,307.8 
			-154.6,308.3 -154.3,307.3 -155.2,306.4 -154.1,306.3 		"/>
		<polygon id="XMLID_29_" class="st1" points="-166,300.3 -164.8,302.3 -162.8,303.4 -164.8,304.7 -166,306.8 -167.2,304.7 
			-169.3,303.4 -167.2,302.3 		"/>
		<polygon id="XMLID_28_" class="st1" points="-155,293.8 -154.3,294.8 -153.3,295.4 -154.3,296.1 -155,297.2 -155.6,296.1 
			-156.7,295.4 -155.6,294.8 		"/>
	</g>
	<path id="XMLID_158_" class="st2" d="M-47,241.3h-161c-0.6,0-1-0.4-1-1v-15.1c0-0.6,0.4-1,1-1h161c0.6,0,1,0.4,1,1v15.1
		C-46,240.8-46.5,241.3-47,241.3z"/>
	<path id="XMLID_157_" class="st3" d="M-45.5,243.2v83h-26v-63.4c0-1-1.4-1.6-2.3-1.6h-107.5c-1,0-2.2,0.7-2.2,1.6v58.4l0,0v5h-25
		v-84h163C-45.5,242.2-45.5,243.2-45.5,243.2z"/>
	<g id="XMLID_154_">
		<path id="XMLID_155_" class="st0" d="M-49,223.2h-157c-2.4,0-4.4,1.6-4.4,4v96c0,2.4,2,5,4.4,5h31.6v-2H-206c-1,0-2.4-2.1-2.4-3
			v-96c0-1,1.4-2,2.4-2h157c1,0,2.6,1,2.6,2v96c0,1-1.7,3-2.6,3h-22.4v2H-49c2.3,0,4.6-2.7,4.6-5v-96
			C-44.5,224.8-46.7,223.2-49,223.2z"/>
	</g>
	<rect id="XMLID_153_" x="-208.6" y="241.3" class="st0" width="163" height="2.2"/>
	<circle id="XMLID_109_" class="st4" cx="-198" cy="233.5" r="3.3"/>
	<circle id="XMLID_105_" class="st4" cx="-188" cy="233.2" r="3.3"/>
	<circle id="XMLID_102_" class="st4" cx="-179" cy="233.2" r="3.3"/>
	<g id="XMLID_11_">
		<circle class="st5" cx="-126.6" cy="327.6" r="12.1"/>
	</g>
	<path class="st5" d="M-71.6,259.2h-111.5c-1.3,0-2.3,0.3-2.3,1.5v60.2v5v2.4h2l0,0c0.1,0,0.2,0,0.3,0h38.5c0,0,0.1-0.3,0.1-0.4
		c0-0.2,0.1-0.5,0.1-0.7v-0.1c0-0.2-0.1-0.5-0.1-0.7v-0.1h-38.9v-65h112v59.6v5.4h-37c0,0,0,0.2,0,0.3s0,1.7,0,1.7h36.8
		c0.1,0,0.1,0,0.2,0l0,0h2v-2.4v-5v-60.1C-69.5,259.5-70.4,259.2-71.6,259.2z"/>
	<g>
		<path class="st4" d="M-128.3,332.1c-0.5-0.2-0.8-0.5-1-0.8c-0.2-0.3-0.4-0.7-0.4-1c0-0.1,0-0.1,0.1-0.2c0.1-0.1,0.1-0.1,0.2-0.1
			h0.5c0.1,0,0.2,0,0.2,0.1c0.1,0,0.1,0.1,0.1,0.2c0.1,0.4,0.3,0.7,0.7,0.9c0.4,0.2,0.8,0.3,1.2,0.3c0.6,0,1-0.1,1.4-0.4
			c0.3-0.3,0.5-0.7,0.5-1.2c0-1-0.6-1.5-1.8-1.5h-1.1c-0.1,0-0.1,0-0.2-0.1c-0.1-0.1-0.1-0.1-0.1-0.2v-0.3c0-0.1,0-0.2,0.1-0.3
			l2.3-2.6h-3.6c-0.1,0-0.1,0-0.2-0.1c-0.1,0-0.1-0.1-0.1-0.2v-0.4c0-0.1,0-0.2,0.1-0.2c0.1-0.1,0.1-0.1,0.2-0.1h4.8
			c0.1,0,0.2,0,0.2,0.1c0.1,0.1,0.1,0.1,0.1,0.2v0.4c0,0.1,0,0.2-0.1,0.3l-2.3,2.6h0.2c0.8,0,1.5,0.2,1.9,0.6c0.5,0.4,0.7,1,0.7,1.8
			c0,0.5-0.1,1-0.4,1.4c-0.3,0.4-0.6,0.7-1.1,0.9s-1,0.3-1.6,0.3C-127.3,332.4-127.9,332.3-128.3,332.1z"/>
	</g>
	<path id="XMLID_2_" class="st4" d="M-56.1,236.7h-87.7c-1.9,0-3.5-1.6-3.5-3.5l0,0c0-1.9,1.6-3.5,3.5-3.5h87.7
		c1.9,0,3.5,1.6,3.5,3.5l0,0C-52.6,235.2-54.1,236.7-56.1,236.7z"/>
</g>
</svg>
