<?xml version="1.0" encoding="utf-8"?>
<!-- Generator: Adobe Illustrator 19.0.0, SVG Export Plug-In . SVG Version: 6.00 Build 0)  -->
<svg version="1.1" id="Layer_1" xmlns="http://www.w3.org/2000/svg" xmlns:xlink="http://www.w3.org/1999/xlink" x="0px" y="0px"
	 viewBox="-391 181 176 200" style="enable-background:new -391 181 176 200;" xml:space="preserve">
<path id="XMLID_2092_" style="fill:#FFFFFF;" d="M-233,242.2v77.6c0,0.8-1.3,2.9-2,3.3l-66.1,38.8c-0.2,0.1-0.9,0.3-1.9,0.3
	s-1.7-0.2-1.9-0.3l-66.1-38.8c-0.7-0.4-1.9-2.5-1.9-3.3v-77.6c0-0.8,1.2-2.9,1.9-3.3l66-38.8c0.2-0.1,0.9-0.3,1.9-0.3
	s1.7,0.2,1.9,0.3l66.2,38.8C-234.3,239.3-233,241.4-233,242.2z"/>
<path id="XMLID_12_" style="fill:#B4E9FB;" d="M-231.2,231.2l-65.8-38.9c-1.6-1-4-1.5-6-1.5l0,0c-3,0-4.8,0.5-6.4,1.5l-66.2,38.9
	c-3.4,2-6.4,7-6.4,11v20.1V302v17.8c0,4,3,9.1,6.3,11l66.1,38.8c1.6,1,3.9,1.5,6.3,1.5s4.6-0.5,6.3-1.5l65.9-38.8
	c3.4-2,6.2-7,6.2-11V302v-59.8C-225,238.2-227.8,233.2-231.2,231.2z M-233,302.1v17.8c0,0.8-1.4,2.9-2.1,3.3l-66.2,38.8
	c-0.2,0.1-1,0.3-2,0.3s-1.7-0.2-1.9-0.3l-66-38.8c-0.7-0.4-1.8-2.5-1.8-3.3v-17.8v-39.8v-20.1c0-0.8,1.1-2.9,1.8-3.3l66.2-38.8
	c0.2-0.1,1-0.3,2-0.3l0,0c1,0,1.5,0.2,1.7,0.3l66.2,38.8c0.7,0.4,2.1,2.5,2.1,3.3V302.1z"/>
<path id="XMLID_4_" style="fill:#5867DD;" d="M-226.2,222.5l-66-38.8c-3.1-1.8-7-2.8-11.1-2.8s-8,1-11.1,2.8l-65.7,38.9
	c-6.5,3.8-10.9,12-10.9,19.6v77.5c0,7.6,4.4,15.9,10.8,19.7l65.9,38.9c3.1,1.8,7,2.8,11,2.8s7.9-1,11-2.8l66.1-38.9
	c6.4-3.8,11.1-12,11.1-19.7v-17.8l0.1-40v-19.7C-215,234.6-219.7,226.3-226.2,222.5z M-224.9,262.3L-224.9,262.3l-0.1,57.5
	c0,4-2.8,9.1-6.1,11l-66,38.8c-1.6,1-3.8,1.5-6.2,1.5s-4.6-0.5-6.2-1.5l-66.2-38.7c-3.4-2-6.3-7-6.3-11v-77.7c0-4,3-9,6.3-11
	l66.1-38.8c1.6-1,3.9-1.5,6.3-1.5s4.6,0.5,6.3,1.5l65.9,38.8c3.4,2,6.2,7,6.2,11V262.3L-224.9,262.3z"/>
<g>
	<path style="fill:#44C8F5;" d="M-301.9,265.2c3.6,0,6.6-3,6.6-6.8c0-3.8-2.9-6.8-6.6-6.8c-3.6,0-6.6,3-6.6,6.8
		C-308.5,262.1-305.5,265.2-301.9,265.2z"/>
	<path style="fill:#44C8F5;" d="M-259.7,268.6c0-24.4-19.3-44.3-43.3-44.3c-23.9,0-43.3,19.9-43.3,44.3c0,14,6.4,26.5,16.3,34.6
		v31.9c0,2.2,1.4,3.2,3.1,2.3l20.9-13.5c1.7-1,4.4-0.9,6.1,0l20.5,13.4c1.7,0.9,3.1-0.1,3.1-2.3v-31.6
		C-266.2,295.3-259.7,282.7-259.7,268.6z M-325.7,287.8c0-5.6,2.7-11.3,7.3-16c1.4-1.5,3.7-2.9,6.3-4.1c-2.2-2.5-3.5-5.8-3.5-9.3
		c0-7.7,6.1-14,13.6-14s13.5,6.3,13.5,14c0,3.4-1.3,6.7-3.6,9.3c1.8,1,3.4,2.3,5.1,4.1c3.9,4,5.8,9.6,5.8,16v3.3h-7.8v-3.3
		c0-8.7-6.7-15.5-14.9-15.5c-8.2,0-14.9,6.8-14.9,15.5v3.3h-6.9C-325.7,291.1-325.7,287.8-325.7,287.8z"/>
</g>
</svg>
