<?xml version="1.0" encoding="utf-8"?>
<!-- Generator: Adobe Illustrator 19.0.0, SVG Export Plug-In . SVG Version: 6.00 Build 0)  -->
<svg version="1.1" id="Layer_1" xmlns="http://www.w3.org/2000/svg" xmlns:xlink="http://www.w3.org/1999/xlink" x="0px" y="0px"
	 viewBox="-391 181 176 200" style="enable-background:new -391 181 176 200;" xml:space="preserve">
<path id="XMLID_2092_" style="fill:#FFFFFF;" d="M-233,242.2v77.6c0,0.8-1.3,2.9-2,3.3l-66.1,38.8c-0.2,0.1-0.9,0.3-1.9,0.3
	s-1.7-0.2-1.9-0.3l-66.1-38.8c-0.7-0.4-1.9-2.5-1.9-3.3v-77.6c0-0.8,1.2-2.9,1.9-3.3l66-38.8c0.2-0.1,0.9-0.3,1.9-0.3
	s1.7,0.2,1.9,0.3l66.2,38.8C-234.3,239.3-233,241.4-233,242.2z"/>
<path id="XMLID_12_" style="fill:#A9D9C0;" d="M-231.2,231.2l-65.8-38.9c-1.6-1-4-1.5-6-1.5l0,0c-3,0-4.8,0.5-6.4,1.5l-66.2,38.9
	c-3.4,2-6.4,7-6.4,11v20.1V302v17.8c0,4,3,9.1,6.3,11l66.1,38.8c1.6,1,3.9,1.5,6.3,1.5s4.6-0.5,6.3-1.5l65.9-38.8
	c3.4-2,6.2-7,6.2-11V302v-59.8C-225,238.2-227.8,233.2-231.2,231.2z M-233,302.1v17.8c0,0.8-1.4,2.9-2.1,3.3l-66.2,38.8
	c-0.2,0.1-1,0.3-2,0.3s-1.7-0.2-1.9-0.3l-66-38.8c-0.7-0.4-1.8-2.5-1.8-3.3v-17.8v-39.8v-20.1c0-0.8,1.1-2.9,1.8-3.3l66.2-38.8
	c0.2-0.1,1-0.3,2-0.3l0,0c1,0,1.5,0.2,1.7,0.3l66.2,38.8c0.7,0.4,2.1,2.5,2.1,3.3V302.1z"/>
<path id="XMLID_4_" style="fill:#5867DD;" d="M-226.2,222.5l-66-38.8c-3.1-1.8-7-2.8-11.1-2.8s-8,1-11.1,2.8l-65.7,38.9
	c-6.5,3.8-10.9,12-10.9,19.6v77.5c0,7.6,4.4,15.9,10.8,19.7l65.9,38.9c3.1,1.8,7,2.8,11,2.8s7.9-1,11-2.8l66.1-38.9
	c6.4-3.8,11.1-12,11.1-19.7v-17.8l0.1-40v-19.7C-215,234.6-219.7,226.3-226.2,222.5z M-224.9,262.3L-224.9,262.3l-0.1,57.5
	c0,4-2.8,9.1-6.1,11l-66,38.8c-1.6,1-3.8,1.5-6.2,1.5s-4.6-0.5-6.2-1.5l-66.2-38.7c-3.4-2-6.3-7-6.3-11v-77.7c0-4,3-9,6.3-11
	l66.1-38.8c1.6-1,3.9-1.5,6.3-1.5s4.6,0.5,6.3,1.5l65.9,38.8c3.4,2,6.2,7,6.2,11V262.3L-224.9,262.3z"/>
<path id="XMLID_25_" style="fill:#00AF74;" d="M-257,240v31.2c0,4-3.2,6.9-7,6.9h-3v17.2c0,0.8-1,1-1.5,0.4l-17.8-17.5h-1.7v-11.8
	c0.3,0.5,0.9,0.8,1.5,0.8h21.9c1,0,1.9-1,1.9-2s-0.8-2-1.9-2h-21.9c-0.6,0-1.1,0.3-1.5,0.8v-5.8h23.4c1,0,1.9-1,1.9-2s-0.8-2-1.9-2
	H-288V249c0-0.3,0-0.6,0-0.8h23.4c1,0,1.9-1,1.9-2s-0.8-2-1.9-2h-25.5c-1.4-1.3-3.2-2-5.2-2H-330V240c0-4,3.4-6.8,7.2-6.8h58.8
	C-260.2,233.2-257,236.1-257,240z"/>
<g id="XMLID_2570_">
	<path id="XMLID_2571_" style="fill:#FFC107;" d="M-327.3,326.7l-4.8-2.5c-0.1,0-0.2,0-0.3,0l-4.7,2.6c-0.2,0.1-0.5-0.1-0.5-0.3
		l0.8-5.4c0-0.1,0-0.2-0.1-0.3l-3.9-3.8c-0.2-0.2-0.1-0.5,0.2-0.6l5.3-0.9c0.1,0,0.2-0.1,0.2-0.2l2.3-4.9c0.1-0.2,0.4-0.2,0.6,0
		l2.4,4.9c0,0.1,0.1,0.2,0.2,0.2l5.3,0.7c0.3,0,0.4,0.4,0.2,0.6l-3.8,3.9c-0.1,0.1-0.1,0.2-0.1,0.3l1,5.4
		C-326.8,326.6-327.1,326.8-327.3,326.7z"/>
</g>
<g id="XMLID_2568_">
	<path id="XMLID_2569_" style="fill:#FFC107;" d="M-308.1,326.7l-4.8-2.5c-0.1,0-0.2,0-0.3,0l-4.7,2.6c-0.2,0.1-0.5-0.1-0.5-0.3
		l0.8-5.4c0-0.1,0-0.2-0.1-0.3l-3.9-3.8c-0.2-0.2-0.1-0.5,0.2-0.6l5.3-0.9c0.1,0,0.2-0.1,0.2-0.2l2.3-4.9c0.1-0.2,0.4-0.2,0.6,0
		l2.4,4.9c0,0.1,0.1,0.2,0.2,0.2l5.3,0.7c0.3,0,0.4,0.4,0.2,0.6l-3.8,3.9c-0.1,0.1-0.1,0.2-0.1,0.3l1,5.4
		C-307.6,326.6-307.9,326.8-308.1,326.7z"/>
</g>
<g id="XMLID_2566_">
	<path id="XMLID_2567_" style="fill:#FFC107;" d="M-288.9,326.7l-4.8-2.5c-0.1,0-0.2,0-0.3,0l-4.7,2.6c-0.2,0.1-0.5-0.1-0.5-0.3
		l0.8-5.4c0-0.1,0-0.2-0.1-0.3l-3.9-3.8c-0.2-0.2-0.1-0.5,0.2-0.6l5.3-0.9c0.1,0,0.2-0.1,0.2-0.2l2.3-4.9c0.1-0.2,0.4-0.2,0.6,0
		l2.4,4.9c0,0.1,0.1,0.2,0.2,0.2l5.3,0.7c0.3,0,0.4,0.4,0.2,0.6l-3.8,3.9c-0.1,0.1-0.1,0.2-0.1,0.3l1,5.4
		C-288.4,326.6-288.6,326.8-288.9,326.7z"/>
</g>
<g id="XMLID_2564_">
	<path id="XMLID_2565_" style="fill:#FFC107;" d="M-269.7,326.7l-4.8-2.5c-0.1,0-0.2,0-0.3,0l-4.7,2.6c-0.2,0.1-0.5-0.1-0.5-0.3
		l0.8-5.4c0-0.1,0-0.2-0.1-0.3l-3.9-3.8c-0.2-0.2-0.1-0.5,0.2-0.6l5.3-0.9c0.1,0,0.2-0.1,0.2-0.2l2.3-4.9c0.1-0.2,0.4-0.2,0.6,0
		l2.4,4.9c0,0.1,0.1,0.2,0.2,0.2l5.3,0.7c0.3,0,0.4,0.4,0.2,0.6l-3.8,3.9c-0.1,0.1-0.1,0.2-0.1,0.3l1,5.4
		C-269.2,326.6-269.4,326.8-269.7,326.7z"/>
</g>
<path id="XMLID_14_" style="fill:#00AF74;" d="M-293,253.2c-0.2-1.6-1-3-2.1-4c-1.4-1.3-3.2-2-5.2-2h-43.2c-3.9,0-6.5,2.9-6.5,6.8
	v31.2c0,3.9,2.6,6.9,6.5,6.9h3.5v17.2c0,0.8,0.8,1,1.2,0.4l17.6-17.5h20.8c3.9,0,7.4-3,7.4-6.9V254C-293,253.7-293,253.5-293,253.2z
	 M-338.8,270.2c-1,0-1.9-1-1.9-2s0.8-2,1.9-2h33.8c1,0,1.9,1,1.9,2s-0.8,2-1.9,2H-338.8z M-328.8,277.2c0-1,0.8-2,1.8-2h22
	c1,0,1.9,1,1.9,2s-0.8,2-1.9,2h-22C-328,279.2-328.8,278.2-328.8,277.2z M-305,260.2h-33.8c-1,0-1.9-0.5-1.9-1.5s0.8-1.5,1.9-1.5
	h33.8c1,0,1.9,0.5,1.9,1.5c0,0.2,0,0.3-0.1,0.5C-303.5,259.9-304.2,260.2-305,260.2z"/>
</svg>
