<?xml version="1.0" encoding="utf-8"?>
<!-- Generator: Adobe Illustrator 19.0.0, SVG Export Plug-In . SVG Version: 6.00 Build 0)  -->
<svg version="1.1" id="Layer_1" xmlns="http://www.w3.org/2000/svg" xmlns:xlink="http://www.w3.org/1999/xlink" x="0px" y="0px"
	 viewBox="-78.9 -14.7 383.7 379.5" style="enable-background:new -78.9 -14.7 383.7 379.5;" xml:space="preserve">
<g>
	<g>
		<path d="M113,212.2c-4.4,0-8,3.6-8,8v30.1c0,4.4,3.6,8,8,8c4.4,0,8-3.6,8-8v-30.1C121,215.8,117.4,212.2,113,212.2z"/>
	</g>
</g>
<g>
	<g>
		<path d="M113,91.7c-4.4,0-8,3.6-8,8v30.1c0,4.4,3.6,8,8,8c4.4,0,8-3.6,8-8V99.7C121,95.3,117.4,91.7,113,91.7z"/>
	</g>
</g>
<g>
	<g>
		<path d="M113,272.4c-4.4,0-8,3.6-8,8v30.1c0,4.4,3.6,8,8,8c4.4,0,8-3.6,8-8v-30.1C121,276,117.4,272.4,113,272.4z"/>
	</g>
</g>
<g>
	<g>
		<path d="M113,31.4c-4.4,0-8,3.6-8,8v30.1c0,4.4,3.6,8,8,8c4.4,0,8-3.6,8-8V39.4C121,35,117.4,31.4,113,31.4z"/>
	</g>
</g>
<g>
	<g>
		<path d="M7.6,167h-30.1c-4.4,0-8,3.6-8,8c0,4.4,3.6,8,8,8H7.6c4.4,0,8-3.6,8-8S12,167,7.6,167z"/>
	</g>
</g>
<g>
	<g>
		<path d="M67.8,167H37.7c-4.4,0-8,3.6-8,8c0,4.4,3.6,8,8,8h30.1c4.4,0,8-3.6,8-8S72.2,167,67.8,167z"/>
	</g>
</g>
<g>
	<g>
		<path d="M128.1,167h-7v-7c0-4.4-3.6-8-8-8c-4.4,0-8,3.6-8,8v7h-7c-4.4,0-8,3.6-8,8c0,4.4,3.6,8,8,8h7v7c0,4.4,3.6,8,8,8
			c4.4,0,8-3.6,8-8v-7h7c4.4,0,8-3.6,8-8S132.5,167,128.1,167z"/>
	</g>
</g>
<g>
	<g>
		<path d="M248.6,167h-30.1c-4.4,0-8,3.6-8,8c0,4.4,3.6,8,8,8h30.1c4.4,0,8-3.6,8-8S253,167,248.6,167z"/>
	</g>
</g>
<g>
	<g>
		<path d="M188.3,167h-30.1c-4.4,0-8,3.6-8,8c0,4.4,3.6,8,8,8h30.1c4.4,0,8-3.6,8-8S192.7,167,188.3,167z"/>
	</g>
</g>
<g>
	<g>
		<path d="M296.9-14.7H-70.8c-4.4,0-8,3.6-8,8v363.4c0,4.4,3.6,8,8,8h367.7c4.4,0,8-3.6,8-8V-6.7C304.9-11.1,301.3-14.7,296.9-14.7z
			 M288.8,167h-10.2c-4.4,0-8,3.6-8,8c0,4.4,3.6,8,8,8h10.2v165.7H121v-8c0-4.4-3.6-8-8-8c-4.4,0-8,3.6-8,8v8H-62.8V183h10.2
			c4.4,0,8-3.6,8-8s-3.6-8-8-8h-10.2V1.3H105v8c0,4.4,3.6,8,8,8c4.4,0,8-3.6,8-8v-8h167.8V167z"/>
	</g>
</g>
</svg>
