<?xml version="1.0" encoding="utf-8"?>
<!-- Generator: Adobe Illustrator 19.0.0, SVG Export Plug-In . SVG Version: 6.00 Build 0)  -->
<svg version="1.1" id="Layer_1" xmlns="http://www.w3.org/2000/svg" xmlns:xlink="http://www.w3.org/1999/xlink" x="0px" y="0px"
	 viewBox="-11 0 176 200" style="enable-background:new -11 0 176 200;" xml:space="preserve">
<style type="text/css">
	.st0{fill:#FFFFFF;}
	.st1{fill:#F5BEC1;}
	.st2{fill:#5867DD;}
	.st3{fill:#E65C64;}
	.st4{fill:#FEC00F;}
	.st5{font-family:'Rubik-Medium';}
	.st6{font-size:34px;}
</style>
<path id="XMLID_2092_" class="st0" d="M147,61.2v77.6c0,0.8-1.3,2.9-2,3.3l-66.1,38.8c-0.2,0.1-0.9,0.3-1.9,0.3s-1.7-0.2-1.9-0.3
	L9,142.1c-0.7-0.4-1.9-2.5-1.9-3.3V61.2c0-0.8,1.2-2.9,1.9-3.3l66-38.8c0.2-0.1,0.9-0.3,1.9-0.3s1.7,0.2,1.9,0.3L145,57.9
	C145.7,58.3,147,60.4,147,61.2z"/>
<path id="XMLID_12_" class="st1" d="M148.8,50.2L83,11.3c-1.6-1-4-1.5-6-1.5l0,0c-3,0-4.8,0.5-6.4,1.5L4.4,50.2c-3.4,2-6.4,7-6.4,11
	v20.1V121v17.8c0,4,3,9.1,6.3,11l66.1,38.8c1.6,1,3.9,1.5,6.3,1.5s4.6-0.5,6.3-1.5l65.9-38.8c3.4-2,6.2-7,6.2-11V121V61.2
	C155,57.2,152.2,52.2,148.8,50.2z M147,121.1v17.8c0,0.8-1.4,2.9-2.1,3.3L78.7,181c-0.2,0.1-1,0.3-2,0.3s-1.7-0.2-1.9-0.3l-66-38.8
	c-0.7-0.4-1.8-2.5-1.8-3.3v-17.8V81.3V61.2c0-0.8,1.1-2.9,1.8-3.3L75,19.1c0.2-0.1,1-0.3,2-0.3l0,0c1,0,1.5,0.2,1.7,0.3l66.2,38.8
	c0.7,0.4,2.1,2.5,2.1,3.3V121.1z"/>
<path id="XMLID_4_" class="st2" d="M153.8,41.5l-66-38.8c-3.1-1.8-7-2.8-11.1-2.8s-8,1-11.1,2.8L-0.1,41.6
	C-6.6,45.4-11,53.6-11,61.2v77.5c0,7.6,4.4,15.9,10.8,19.7l65.9,38.9c3.1,1.8,7,2.8,11,2.8s7.9-1,11-2.8l66.1-38.9
	c6.4-3.8,11.1-12,11.1-19.7v-17.8l0.1-40V61.2C165,53.6,160.3,45.3,153.8,41.5z M155.1,81.3L155.1,81.3l-0.1,57.5
	c0,4-2.8,9.1-6.1,11l-66,38.8c-1.6,1-3.8,1.5-6.2,1.5c-2.4,0-4.6-0.5-6.2-1.5L4.3,149.9c-3.4-2-6.3-7-6.3-11V61.2c0-4,3-9,6.3-11
	l66.1-38.8c1.6-1,3.9-1.5,6.3-1.5s4.6,0.5,6.3,1.5l65.9,38.8c3.4,2,6.2,7,6.2,11V81.3L155.1,81.3z"/>
<g>
	<path class="st3" d="M116.1,108.8c-2.1,1.5-4.7,2.4-7.5,2.4c-4.3,0-8.1-2.1-10.5-5.3c-2.4,3.2-6.2,5.3-10.5,5.3
		c-4.3,0-8.1-2.1-10.5-5.3c-2.4,3.2-6.2,5.3-10.5,5.3c-4.3,0-8.1-2.1-10.5-5.3c-2.4,3.2-6.2,5.3-10.5,5.3c-2.8,0-5.4-0.9-7.5-2.4
		v10.6c1.6-0.8,3.2-1.3,4.9-1.5c4.8-0.6,8.7,0.5,13,2.6c1.8,0.9,3.9,2,6,2c1.8,0,3.5-0.7,5.2-1.5c3.5-1.7,7.2-3.7,11.3-3.7
		c4.3,0,8.1,1.8,11.9,3.7c3.5,1.8,6.9,3.3,10.7,1.4c4-2,7.7-5,12.3-5.7c1-0.2,1.9-0.2,2.9-0.1V108.8z M116.1,108.8"/>
	<path class="st3" d="M109.1,126.9c-3.5,2.1-7.1,4.3-11.3,4.4c-3.8,0.1-7.2-1.2-10.5-2.8c-2.8-1.4-6-3.5-9.3-3.2
		c-3.6,0.3-7,2.7-10.3,4c-3.6,1.4-7.6,1.6-11.3,0.1c-3.4-1.3-6.9-3.8-10.6-3.8c-3.2,0-5.9,1.3-8,3.6v7.7h78.2v-12.2
		C113.8,124.1,111.1,125.8,109.1,126.9L109.1,126.9z M109.1,126.9"/>
	<path class="st3" d="M116.3,103.2c0.1-0.1,0.2-0.2,0.3-0.3c1.5-1.8,2.5-4.2,2.5-6.8V78.5H81.2v-9.6c-1.2,0.8-2.7,1.2-4.2,1.2
		c-1.5,0-3-0.5-4.2-1.2v9.6H34.9v17.6c0,2.6,0.9,4.9,2.5,6.8c0.1,0.1,0.2,0.2,0.3,0.3c0.1,0.1,0.2,0.2,0.3,0.3
		c1.9,2,4.6,3.2,7.5,3.2c5.8,0,10.5-4.7,10.5-10.5c0,5.8,4.7,10.5,10.5,10.5c5.8,0,10.5-4.7,10.5-10.5c0,5.8,4.7,10.5,10.5,10.5
		c5.8,0,10.5-4.7,10.5-10.5c0,5.8,4.7,10.5,10.5,10.5c3,0,5.6-1.2,7.5-3.2C116.2,103.4,116.3,103.3,116.3,103.2L116.3,103.2z
		 M116.3,103.2"/>
	<path class="st3" d="M77,151.5c26,0,47-4.9,47-11H30C30,146.5,51,151.5,77,151.5L77,151.5z M77,151.5"/>
	<path class="st4" d="M74.3,64.8c0.8,0.5,1.7,0.7,2.7,0.7c1,0,1.9-0.3,2.7-0.7c1.9-1.1,3.2-3.3,3.2-5.9c0-1.9-3-12.4-6-12.4h0
		c-2.9,0-5.7,10.6-5.7,12.4C71.1,61.5,72.4,63.7,74.3,64.8L74.3,64.8z M74.3,64.8"/>
</g>
<path id="XMLID_38_" class="st3" d="M121,51.5c-13.5,0-24.5-11-24.5-24.5s11-24.5,24.5-24.5s24.5,11,24.5,24.5S134.6,51.5,121,51.5z
	"/>
<path id="XMLID_35_" class="st0" d="M121,5c12.1,0,22,9.9,22,22s-9.9,22-22,22s-22-9.9-22-22S108.9,5,121,5 M121,0
	c-14.9,0-27,12.1-27,27s12.1,27,27,27s27-12.1,27-27S136,0,121,0L121,0z"/>
<text id="XMLID_23_" transform="matrix(1 0 0 1 110.2064 38.8357)" class="st0 st5 st6">1</text>
</svg>
