<?xml version="1.0" encoding="utf-8"?>
<!-- Generator: Adobe Illustrator 19.0.0, SVG Export Plug-In . SVG Version: 6.00 Build 0)  -->
<svg version="1.1" id="Layer_1" xmlns="http://www.w3.org/2000/svg" xmlns:xlink="http://www.w3.org/1999/xlink" x="0px" y="0px"
	 viewBox="-391 181 176 200" style="enable-background:new -391 181 176 200;" xml:space="preserve">
<path id="XMLID_2092_" style="fill:#FFFFFF;" d="M-233,242.2v77.6c0,0.8-1.3,2.9-2,3.3l-66.1,38.8c-0.2,0.1-0.9,0.3-1.9,0.3
	s-1.7-0.2-1.9-0.3l-66.1-38.8c-0.7-0.4-1.9-2.5-1.9-3.3v-77.6c0-0.8,1.2-2.9,1.9-3.3l66-38.8c0.2-0.1,0.9-0.3,1.9-0.3
	s1.7,0.2,1.9,0.3l66.2,38.8C-234.3,239.3-233,241.4-233,242.2z"/>
<path id="XMLID_12_" style="fill:#AFD9B6;" d="M-231.2,231.2l-65.8-38.9c-1.6-1-4-1.5-6-1.5l0,0c-3,0-4.8,0.5-6.4,1.5l-66.2,38.9
	c-3.4,2-6.4,7-6.4,11v20.1V302v17.8c0,4,3,9.1,6.3,11l66.1,38.8c1.6,1,3.9,1.5,6.3,1.5s4.6-0.5,6.3-1.5l65.9-38.8
	c3.4-2,6.2-7,6.2-11V302v-59.8C-225,238.2-227.8,233.2-231.2,231.2z M-233,302.1v17.8c0,0.8-1.4,2.9-2.1,3.3l-66.2,38.8
	c-0.2,0.1-1,0.3-2,0.3s-1.7-0.2-1.9-0.3l-66-38.8c-0.7-0.4-1.8-2.5-1.8-3.3v-17.8v-39.8v-20.1c0-0.8,1.1-2.9,1.8-3.3l66.2-38.8
	c0.2-0.1,1-0.3,2-0.3l0,0c1,0,1.5,0.2,1.7,0.3l66.2,38.8c0.7,0.4,2.1,2.5,2.1,3.3V302.1z"/>
<path id="XMLID_4_" style="fill:#5867DD;" d="M-226.2,222.5l-66-38.8c-3.1-1.8-7-2.8-11.1-2.8s-8,1-11.1,2.8l-65.7,38.9
	c-6.5,3.8-10.9,12-10.9,19.6v77.5c0,7.6,4.4,15.9,10.8,19.7l65.9,38.9c3.1,1.8,7,2.8,11,2.8s7.9-1,11-2.8l66.1-38.9
	c6.4-3.8,11.1-12,11.1-19.7v-17.8l0.1-40v-19.7C-215,234.6-219.7,226.3-226.2,222.5z M-224.9,262.3L-224.9,262.3l-0.1,57.5
	c0,4-2.8,9.1-6.1,11l-66,38.8c-1.6,1-3.8,1.5-6.2,1.5s-4.6-0.5-6.2-1.5l-66.2-38.7c-3.4-2-6.3-7-6.3-11v-77.7c0-4,3-9,6.3-11
	l66.1-38.8c1.6-1,3.9-1.5,6.3-1.5s4.6,0.5,6.3,1.5l65.9,38.8c3.4,2,6.2,7,6.2,11V262.3L-224.9,262.3z"/>
<path id="XMLID_90_" style="fill:#F4CC6A;" d="M-303.3,271.4L-303.3,271.4L-303.3,271.4z"/>
<path id="XMLID_88_" style="fill:#F4CC6A;" d="M-303.3,271.4L-303.3,271.4L-303.3,271.4z"/>
<path id="XMLID_86_" style="fill:#F4CC6A;" d="M-303.3,271.4L-303.3,271.4L-303.3,271.4z"/>
<g>
	<g id="XMLID_1_">
		<polygon id="XMLID_2065_" style="fill:#38A049;" points="-271.3,340.6 -292.1,340.6 -308.6,312.6 -287.9,312.6 		"/>
		<polygon id="XMLID_2042_" style="fill:#38A049;" points="-297.4,312.6 -314,340.6 -334.7,340.6 -318.2,312.6 		"/>
	</g>
	<path style="fill:#38A049;" d="M-289.8,323.4c-0.8,0-1.6-0.1-2.3-0.3l-6-1.7c-1.3-0.4-3-0.6-4.9-0.6c-1.8,0-3.6,0.2-4.9,0.6l-6,1.7
		c-0.7,0.2-1.5,0.3-2.3,0.3c-3.1,0-6.2-1.4-7.9-3.6l-3.9-5c-1.7-2.2-5.3-4.8-7.8-5.7l-5.9-2.1c-3.4-1.2-6.2-5.1-6.3-8.7l-0.2-6.3
		c-0.1-2.7-1.5-7-3-9.2l-3.5-5.2c-2-3-2-7.7,0-10.8l3.5-5.2c1.5-2.3,2.9-6.5,3-9.2l0.2-6.3c0.1-3.6,2.9-7.5,6.3-8.7l5.9-2.1
		c2.6-0.9,6.2-3.5,7.8-5.7l3.9-5c1.7-2.2,4.9-3.6,7.9-3.6c0.8,0,1.6,0.1,2.3,0.3l6,1.7c1.3,0.4,3,0.6,4.9,0.6s3.6-0.2,4.9-0.6l6-1.7
		c0.7-0.2,1.5-0.3,2.3-0.3c3.1,0,6.2,1.4,7.9,3.6l3.9,5c1.7,2.2,5.3,4.8,7.8,5.7l5.9,2.1c3.4,1.2,6.2,5.1,6.3,8.7l0.2,6.3
		c0.1,2.7,1.5,7,3,9.2l3.5,5.2c2,3,2,7.7,0,10.8l-3.5,5.2c-1.5,2.3-2.9,6.5-3,9.2l-0.2,6.3c-0.1,3.6-2.9,7.5-6.3,8.7l-5.9,2.1
		c-2.6,0.9-6.2,3.5-7.8,5.7l-3.9,5C-283.6,321.9-286.7,323.4-289.8,323.4z"/>
</g>
<circle style="fill:#62BB46;" cx="-302.9" cy="271.9" r="38.2"/>
<g>
	<path style="fill:#FFFFFF;" d="M-289.8,222.4c2.5,0,5.2,1.2,6.7,3.1l3.9,5c1.9,2.4,5.7,5.2,8.5,6.2l5.9,2.1c2.8,1,5.2,4.3,5.3,7.3
		l0.2,6.3c0.1,3,1.6,7.5,3.3,10l3.5,5.2c1.7,2.5,1.7,6.6,0,9.1l-3.5,5.2c-1.7,2.5-3.2,7-3.3,10l-0.2,6.3c-0.1,3-2.5,6.3-5.3,7.3
		l-5.9,2.1c-2.8,1-6.7,3.8-8.5,6.2l-3.9,5c-1.5,1.9-4.2,3.1-6.7,3.1c-0.7,0-1.3-0.1-1.9-0.3l-6-1.7c-1.4-0.4-3.4-0.6-5.3-0.6
		s-3.8,0.2-5.3,0.6l-6,1.7c-0.6,0.2-1.3,0.3-1.9,0.3c-2.5,0-5.2-1.2-6.7-3.1l-3.9-5c-1.9-2.4-5.7-5.2-8.5-6.2l-5.9-2.1
		c-2.8-1-5.2-4.3-5.3-7.3l-0.2-6.3c-0.1-3-1.6-7.5-3.3-10l-3.5-5.2c-1.7-2.5-1.7-6.6,0-9.1l3.5-5.2c1.7-2.5,3.2-7,3.3-10l0.2-6.3
		c0.1-3,2.5-6.3,5.3-7.3l5.9-2.1c2.8-1,6.7-3.8,8.5-6.2l3.9-5c1.5-1.9,4.2-3.1,6.7-3.1c0.7,0,1.3,0.1,1.9,0.3l6,1.7
		c1.4,0.4,3.4,0.6,5.3,0.6s3.8-0.2,5.3-0.6l6-1.7C-291.1,222.4-290.4,222.4-289.8,222.4 M-289.8,219.4L-289.8,219.4
		c-1,0-1.9,0.1-2.8,0.4l-6,1.7c-1.1,0.3-2.7,0.5-4.4,0.5c-1.7,0-3.3-0.2-4.4-0.5l-6-1.7c-0.9-0.2-1.8-0.4-2.8-0.4
		c-3.5,0-7.1,1.7-9.1,4.2l-3.9,5c-1.5,1.9-4.9,4.4-7.2,5.2l-5.9,2.1c-4,1.4-7.2,5.9-7.3,10.1l-0.2,6.3c-0.1,2.5-1.4,6.4-2.7,8.4
		l-3.5,5.2c-2.4,3.5-2.4,9,0,12.4l3.5,5.2c1.4,2,2.7,6,2.7,8.4l0.2,6.3c0.1,4.2,3.4,8.6,7.3,10.1l5.9,2.1c2.3,0.8,5.7,3.3,7.2,5.2
		l3.9,5c2,2.6,5.6,4.2,9.1,4.2c1,0,1.9-0.1,2.8-0.4l6-1.7c1.1-0.3,2.7-0.5,4.4-0.5c1.7,0,3.3,0.2,4.4,0.5l6,1.7
		c0.9,0.2,1.8,0.4,2.8,0.4c3.5,0,7.1-1.7,9.1-4.2l3.9-5c1.5-1.9,4.9-4.4,7.2-5.2l5.9-2.1c4-1.4,7.2-5.9,7.3-10.1l0.2-6.3
		c0.1-2.5,1.4-6.4,2.7-8.4l3.5-5.2c2.4-3.5,2.4-9,0-12.4l-3.5-5.2c-1.4-2-2.7-6-2.7-8.4l-0.2-6.3c-0.1-4.2-3.4-8.6-7.3-10.1
		l-5.9-2.1c-2.3-0.8-5.7-3.3-7.2-5.2l-3.9-5C-282.7,221-286.3,219.4-289.8,219.4L-289.8,219.4z"/>
	<path style="fill:#FFFFFF;" d="M-302.9,311.6c-21.9,0-39.7-17.8-39.7-39.7c0-21.9,17.8-39.7,39.7-39.7c21.9,0,39.7,17.8,39.7,39.7
		C-263.2,293.8-281,311.6-302.9,311.6z M-302.9,235.2c-20.2,0-36.7,16.5-36.7,36.7s16.5,36.7,36.7,36.7c20.2,0,36.7-16.5,36.7-36.7
		C-266.2,251.7-282.7,235.2-302.9,235.2z"/>
	<g>
		<path style="fill:#FFFFFF;" d="M-313.7,291.7h-8.5c-0.8,0-1.4-0.6-1.4-1.4v-22.8c0-0.8,0.6-1.4,1.4-1.4h8.5c0.8,0,1.4,0.6,1.4,1.4
			v22.8C-312.3,291-312.9,291.7-313.7,291.7z"/>
		<path style="fill:#FFFFFF;" d="M-282.4,269.3c-0.2-1.9-1.9-3.2-3.7-3.2h-12.1c3.3-2.7,5.6-6.3,5.9-9.2c0.2-2.2-1.3-4.3-3.5-4.3
			c-2,0-3.6,1.6-3.6,3.5c0,1.3-2.8,5.1-8,6.8l0,0c-1.2,0.4-2,1.6-2,2.9v23.1c0,0.8,0.6,1.4,1.4,1.4h18.4c1.4,0,2.7-1,3-2.4
			c0.3-1.8-1.1-3.3-2.8-3.3h1.3c1.4,0,2.7-1,3-2.4c0.3-1.8-1.1-3.3-2.8-3.3h1.3c1.4,0,2.7-1,3-2.4c0.3-1.8-1.1-3.3-2.8-3.3h0.7
			C-283.8,273.2-282.2,271.4-282.4,269.3z"/>
	</g>
</g>
</svg>
