<?xml version="1.0" encoding="utf-8"?>
<!-- Generator: Adobe Illustrator 19.0.0, SVG Export Plug-In . SVG Version: 6.00 Build 0)  -->
<svg version="1.1" id="Layer_1" xmlns="http://www.w3.org/2000/svg" xmlns:xlink="http://www.w3.org/1999/xlink" x="0px" y="0px"
	 viewBox="-391 181 176 200" style="enable-background:new -391 181 176 200;" xml:space="preserve">
<path id="XMLID_2092_" style="fill:#FFFFFF;" d="M-233,242.2v77.6c0,0.8-1.3,2.9-2,3.3l-66.1,38.8c-0.2,0.1-0.9,0.3-1.9,0.3
	s-1.7-0.2-1.9-0.3l-66.1-38.8c-0.7-0.4-1.9-2.5-1.9-3.3v-77.6c0-0.8,1.2-2.9,1.9-3.3l66-38.8c0.2-0.1,0.9-0.3,1.9-0.3
	s1.7,0.2,1.9,0.3l66.2,38.8C-234.3,239.3-233,241.4-233,242.2z"/>
<path id="XMLID_12_" style="fill:#A8D5F2;" d="M-231.2,231.2l-65.8-38.9c-1.6-1-4-1.5-6-1.5l0,0c-3,0-4.8,0.5-6.4,1.5l-66.2,38.9
	c-3.4,2-6.4,7-6.4,11v20.1V302v17.8c0,4,3,9.1,6.3,11l66.1,38.8c1.6,1,3.9,1.5,6.3,1.5s4.6-0.5,6.3-1.5l65.9-38.8
	c3.4-2,6.2-7,6.2-11V302v-59.8C-225,238.2-227.8,233.2-231.2,231.2z M-233,302.1v17.8c0,0.8-1.4,2.9-2.1,3.3l-66.2,38.8
	c-0.2,0.1-1,0.3-2,0.3s-1.7-0.2-1.9-0.3l-66-38.8c-0.7-0.4-1.8-2.5-1.8-3.3v-17.8v-39.8v-20.1c0-0.8,1.1-2.9,1.8-3.3l66.2-38.8
	c0.2-0.1,1-0.3,2-0.3l0,0c1,0,1.5,0.2,1.7,0.3l66.2,38.8c0.7,0.4,2.1,2.5,2.1,3.3V302.1z"/>
<path id="XMLID_4_" style="fill:#5867DD;" d="M-226.2,222.5l-66-38.8c-3.1-1.8-7-2.8-11.1-2.8s-8,1-11.1,2.8l-65.7,38.9
	c-6.5,3.8-10.9,12-10.9,19.6v77.5c0,7.6,4.4,15.9,10.8,19.7l65.9,38.9c3.1,1.8,7,2.8,11,2.8s7.9-1,11-2.8l66.1-38.9
	c6.4-3.8,11.1-12,11.1-19.7v-17.8l0.1-40v-19.7C-215,234.6-219.7,226.3-226.2,222.5z M-224.9,262.3L-224.9,262.3l-0.1,57.5
	c0,4-2.8,9.1-6.1,11l-66,38.8c-1.6,1-3.8,1.5-6.2,1.5s-4.6-0.5-6.2-1.5l-66.2-38.7c-3.4-2-6.3-7-6.3-11v-77.7c0-4,3-9,6.3-11
	l66.1-38.8c1.6-1,3.9-1.5,6.3-1.5s4.6,0.5,6.3,1.5l65.9,38.8c3.4,2,6.2,7,6.2,11V262.3L-224.9,262.3z"/>
<path id="XMLID_90_" style="fill:#F4CC6A;" d="M-303.3,271.4L-303.3,271.4L-303.3,271.4z"/>
<path id="XMLID_88_" style="fill:#F4CC6A;" d="M-303.3,271.4L-303.3,271.4L-303.3,271.4z"/>
<path id="XMLID_86_" style="fill:#F4CC6A;" d="M-303.3,271.4L-303.3,271.4L-303.3,271.4z"/>
<g id="XMLID_1981_">
	<path id="XMLID_2315_" style="fill:#00A9E4;" d="M-275.9,295.4c-3.8,5.4-10,8.9-17,8.9h-9.7c-3.4,0-6.2-2.2-7.4-5.3
		c-1.3-0.4-2.7-0.9-3.9-1.6c-2.7-1.3-5.2-3.3-7.4-5.6c-14.1,3.2-24.6,16-24.6,31.5v2c0,2.8,2.2,5,4.9,5h76c2.7,0,4.9-2.3,4.9-5v-2
		C-260.1,311.4-266.5,301-275.9,295.4L-275.9,295.4z"/>
	<path id="XMLID_1982_" style="fill:#00A9E4;" d="M-326.4,281.5c2.1,0,3.9-1.2,4.9-3c0,0.1,0,0.1,0.1,0.2v0.1
		c2.3,6,6.5,11.1,12.3,13.3c1.3-2.3,3.8-3.7,6.6-3.7h9.7c0.9,0,1.9-0.3,2.7-0.7c1.3-0.7,2.6-2.7,3.1-3.7c1-1.7,1.8-3.4,2.5-5.3
		c0.4,0.7,0.9,1.3,1.6,1.9v2.5c0,5.6-4.5,10-9.8,10h-9.7c-1.9,0-3.3,1.6-3.3,3.4c0,1.9,1.4,3.4,3.3,3.4h9.7
		c9.1,0,16.5-7.6,16.5-16.9v-2.5c1.3-1,2.3-2.7,2.3-4.6v-14.4c0-1.9-0.9-3.6-2.3-4.7c-1.2-14.1-12.7-25.1-26.8-25.1
		c-14.1,0-25.6,11-26.7,25.1c-1.4,1-2.3,2.7-2.3,4.7v14.3C-332,279-329.5,281.5-326.4,281.5L-326.4,281.5z M-303,238.5
		c10.4,0,18.9,8.1,20,18.5c-0.6,0.5-1.2,1.2-1.6,2c-3.1-8.4-10.2-14.3-18.4-14.3c-8.4,0-15.3,6.1-18.4,14.3l0,0
		c-0.4-0.8-0.9-1.4-1.6-2C-321.9,246.7-313.5,238.5-303,238.5L-303,238.5z"/>
</g>
</svg>
