<?xml version="1.0" encoding="utf-8"?>
<!-- Generator: Adobe Illustrator 19.0.0, SVG Export Plug-In . SVG Version: 6.00 Build 0)  -->
<svg version="1.1" id="Layer_1" xmlns="http://www.w3.org/2000/svg" xmlns:xlink="http://www.w3.org/1999/xlink" x="0px" y="0px"
	 viewBox="-391 181 176 200" style="enable-background:new -391 181 176 200;" xml:space="preserve">
<path id="XMLID_2092_" style="fill:#FFFFFF;" d="M-233,242.2v77.6c0,0.8-1.3,2.9-2,3.3l-66.1,38.8c-0.2,0.1-0.9,0.3-1.9,0.3
	s-1.7-0.2-1.9-0.3l-66.1-38.8c-0.7-0.4-1.9-2.5-1.9-3.3v-77.6c0-0.8,1.2-2.9,1.9-3.3l66-38.8c0.2-0.1,0.9-0.3,1.9-0.3
	s1.7,0.2,1.9,0.3l66.2,38.8C-234.3,239.3-233,241.4-233,242.2z"/>
<path id="XMLID_12_" style="fill:#CBAAD3;" d="M-231.2,231.2l-65.8-38.9c-1.6-1-4-1.5-6-1.5l0,0c-3,0-4.8,0.5-6.4,1.5l-66.2,38.9
	c-3.4,2-6.4,7-6.4,11v20.1V302v17.8c0,4,3,9.1,6.3,11l66.1,38.8c1.6,1,3.9,1.5,6.3,1.5s4.6-0.5,6.3-1.5l65.9-38.8
	c3.4-2,6.2-7,6.2-11V302v-59.8C-225,238.2-227.8,233.2-231.2,231.2z M-233,302.1v17.8c0,0.8-1.4,2.9-2.1,3.3l-66.2,38.8
	c-0.2,0.1-1,0.3-2,0.3s-1.7-0.2-1.9-0.3l-66-38.8c-0.7-0.4-1.8-2.5-1.8-3.3v-17.8v-39.8v-20.1c0-0.8,1.1-2.9,1.8-3.3l66.2-38.8
	c0.2-0.1,1-0.3,2-0.3l0,0c1,0,1.5,0.2,1.7,0.3l66.2,38.8c0.7,0.4,2.1,2.5,2.1,3.3V302.1z"/>
<path id="XMLID_4_" style="fill:#5867DD;" d="M-226.2,222.5l-66-38.8c-3.1-1.8-7-2.8-11.1-2.8s-8,1-11.1,2.8l-65.7,38.9
	c-6.5,3.8-10.9,12-10.9,19.6v77.5c0,7.6,4.4,15.9,10.8,19.7l65.9,38.9c3.1,1.8,7,2.8,11,2.8s7.9-1,11-2.8l66.1-38.9
	c6.4-3.8,11.1-12,11.1-19.7v-17.8l0.1-40v-19.7C-215,234.6-219.7,226.3-226.2,222.5z M-224.9,262.3L-224.9,262.3l-0.1,57.5
	c0,4-2.8,9.1-6.1,11l-66,38.8c-1.6,1-3.8,1.5-6.2,1.5s-4.6-0.5-6.2-1.5l-66.2-38.7c-3.4-2-6.3-7-6.3-11v-77.7c0-4,3-9,6.3-11
	l66.1-38.8c1.6-1,3.9-1.5,6.3-1.5s4.6,0.5,6.3,1.5l65.9,38.8c3.4,2,6.2,7,6.2,11V262.3L-224.9,262.3z"/>
<path id="XMLID_90_" style="fill:#F4CC6A;" d="M-303.3,271.4L-303.3,271.4L-303.3,271.4z"/>
<path id="XMLID_88_" style="fill:#F4CC6A;" d="M-303.3,271.4L-303.3,271.4L-303.3,271.4z"/>
<path id="XMLID_86_" style="fill:#F4CC6A;" d="M-303.3,271.4L-303.3,271.4L-303.3,271.4z"/>
<g>
	<path style="fill:#7C2A90;" d="M-315.2,312.5c-2.5,0-4.5,1.9-4.5,4.5v13.5c0,2.6,2,4.5,4.5,4.5s4.5-1.9,4.5-4.5V317
		C-310.7,314.4-312.7,312.5-315.2,312.5z"/>
	<path style="fill:#7C2A90;" d="M-299,266.8c-0.7-0.3-1.7-0.6-2.9-0.9c-0.9-0.2-1.5-0.4-2-0.6c-0.4-0.2-0.8-0.4-1-0.7
		c-0.2-0.2-0.3-0.5-0.3-0.9c0-0.6,0.2-1,0.6-1.3c0.5-0.3,1-0.4,1.8-0.4c0.7,0,1.2,0.2,1.7,0.5c0.4,0.3,0.7,0.7,0.8,1.1
		c0.1,0.3,0.3,0.4,0.6,0.4h2c0.1,0,0.2,0,0.3-0.1s0.1-0.2,0.1-0.3c0-0.5-0.2-1.1-0.5-1.6c-0.4-0.5-0.9-1-1.5-1.4s-1.4-0.7-2.3-0.8
		v-1.5c0-0.2,0-0.3-0.1-0.4c-0.1-0.1-0.2-0.1-0.4-0.1h-1.3c-0.1,0-0.2,0-0.3,0.1c-0.1,0.1-0.1,0.2-0.1,0.4v1.5
		c-1.4,0.2-2.4,0.6-3.2,1.4c-0.8,0.8-1.2,1.7-1.2,2.8c0,1.2,0.3,2.2,1.1,2.8c0.8,0.7,2,1.2,3.6,1.6c1,0.3,1.7,0.5,2.2,0.7
		c0.5,0.2,0.9,0.4,1.1,0.7c0.3,0.2,0.4,0.5,0.4,0.9c0,0.6-0.2,1.1-0.7,1.4c-0.5,0.3-1.3,0.5-2.2,0.5c-0.8,0-1.5-0.2-2-0.5
		c-0.5-0.3-0.8-0.7-1-1.2c-0.1-0.1-0.2-0.2-0.3-0.3s-0.2-0.1-0.4-0.1h-1.9c-0.1,0-0.2,0-0.3,0.1c-0.1,0.1-0.1,0.2-0.1,0.3
		c0,0.6,0.2,1.2,0.6,1.8c0.4,0.5,0.9,1,1.6,1.4s1.5,0.6,2.5,0.7v1.5c0,0.2,0,0.3,0.1,0.4c0.1,0.1,0.2,0.1,0.4-0.2h1.3
		c0.2,0,0.3,0,0.4-0.1c0.1-0.1,0.1-0.2,0.1-0.4v-1.5c1.5-0.2,2.6-0.6,3.5-1.4c0.9-0.8,1.3-1.8,1.3-3c0-0.8-0.2-1.5-0.5-2
		S-298.3,267.3-299,266.8z"/>
	<path style="fill:#7C2A90;" d="M-337.7,314.3c2.5-5.8,6.9-11,12.9-14.5c-2.2-7.5-2.2-20.9-2.2-20.9
		C-338.3,287.3-343.4,301.4-337.7,314.3z"/>
	<path style="fill:#7C2A90;" d="M-281.2,277.1c0-20-6.8-40.5-20-54.7c-0.5-0.5-1.5-0.7-1.5-0.7c-1,0-1.2,0.3-1.6,0.7
		c-13.2,14.2-20.2,34.9-20.5,54.4c0,0,0,13.3,2.2,20.9c0.6,2.6,1.2,5.6,2.2,7.9c0.3,1,0.9,2.1,2.2,2.1h15.5h15.8
		c0.7,0,1.3-1.1,1.6-2.1c1-2.3,1.6-5.2,1.9-7.5C-280.9,287.8-281.1,277.1-281.2,277.1z M-302.7,281.8c0,0-0.4,0-0.6,0
		c-7.9,0-14.4-6.6-14.4-14.7c0.1-8.1,6.5-14.7,14.4-14.7c0.1,0,0.6,0,0.6,0c7,0.2,14,6.7,14,14.7S-295.7,281.5-302.7,281.8z"/>
	<path style="fill:#7C2A90;" d="M-290.2,312.5c-2.5,0-3.5,1.9-3.5,4.5v13.5c0,2.6,1,4.5,3.5,4.5s3.5-1.9,3.5-4.5V317
		C-286.7,314.4-287.7,312.5-290.2,312.5z"/>
	<path style="fill:#7C2A90;" d="M-302.7,312.5c-3,0-4,1.9-4,4.5v18.7c0,2.6,1,4.5,4,4.5c2,0,4-1.9,4-4.5V317
		C-298.7,314.4-300.7,312.5-302.7,312.5z"/>
	<path style="fill:#7C2A90;" d="M-279.2,279.3c0,0,0.3,10.6-2.2,21c6,3.5,10.4,8.6,12.9,14.4C-262.8,301.8-267.2,287.6-279.2,279.3z
		"/>
</g>
</svg>
