<?xml version="1.0" encoding="utf-8"?>
<!-- Generator: Adobe Illustrator 19.0.0, SVG Export Plug-In . SVG Version: 6.00 Build 0)  -->
<svg version="1.1" id="Layer_1" xmlns="http://www.w3.org/2000/svg" xmlns:xlink="http://www.w3.org/1999/xlink" x="0px" y="0px"
	 viewBox="-210.4 223.2 166 116.5" style="enable-background:new -210.4 223.2 166 116.5;" xml:space="preserve">
<style type="text/css">
	.st0{opacity:0.3;fill:#5260CE;enable-background:new    ;}
	.st1{fill:#FFFFFF;}
	.st2{fill:#34BFA2;}
	.st3{opacity:0.3;fill:#34BFA2;enable-background:new    ;}
	.st4{opacity:0.1;fill:#34BFA2;enable-background:new    ;}
	.st5{fill:#5260CE;}
</style>
<g>
	<g>
		<polygon id="XMLID_137_" class="st0" points="-85.5,274.5 -86.3,276.3 -88.2,276.5 -86.8,277.9 -87.2,279.9 -85.5,279 
			-83.7,279.9 -84,277.9 -82.6,276.5 -84.6,276.3 		"/>
		<polygon id="XMLID_136_" class="st0" points="-107.2,270.6 -108.2,272.4 -110.1,272.6 -108.7,274 -109,275.9 -107.2,275 
			-105.7,275.9 -106,274 -104.6,272.6 -106.5,272.4 		"/>
		<polygon id="XMLID_132_" class="st0" points="-97.2,279.5 -97.7,280.5 -98.7,280.5 -98,281.4 -98.2,282.5 -97.2,282 -96.2,282.5 
			-96.3,281.4 -95.6,280.5 -96.7,280.5 		"/>
		<polygon id="XMLID_131_" class="st0" points="-101.2,302.5 -101.7,303.5 -102.7,303.5 -102,304.4 -102.2,305.5 -101.2,305 
			-100.2,305.5 -100.3,304.4 -99.6,303.5 -100.7,303.5 		"/>
		<polygon id="XMLID_130_" class="st0" points="-88.7,297.4 -89.8,299.5 -92,300.5 -89.8,301.8 -88.7,303.9 -87.6,301.8 
			-85.5,300.5 -87.6,299.5 		"/>
		<polygon id="XMLID_129_" class="st0" points="-99.7,290.9 -100.2,292 -101.3,292.5 -100.2,293.1 -99.7,294.3 -99.1,293.1 
			-98,292.5 -99.1,292 		"/>
		<polygon id="XMLID_140_" class="st0" points="-167.2,274.5 -166.3,276.3 -164.3,276.5 -165.8,277.9 -165.3,279.9 -167.2,279 
			-169.1,279.9 -168.6,277.9 -170.1,276.5 -168.1,276.3 		"/>
		<polygon id="XMLID_139_" class="st0" points="-145.3,270.6 -144.6,272.4 -142.6,272.6 -144.1,274 -143.7,275.9 -145.3,275 
			-147.1,275.9 -146.7,274 -148.1,272.6 -146.2,272.4 		"/>
		<polygon id="XMLID_127_" class="st0" points="-155.6,279.5 -155.1,280.5 -153.8,280.5 -154.7,281.4 -154.6,282.5 -155.6,282 
			-156.6,282.5 -156.3,281.4 -157.1,280.5 -156.1,280.5 		"/>
		<polygon id="XMLID_110_" class="st0" points="-151.6,302.5 -151.1,303.5 -149.8,303.5 -150.7,304.4 -150.6,305.5 -151.6,305 
			-152.6,305.5 -152.3,304.4 -153.1,303.5 -152.1,303.5 		"/>
		<polygon id="XMLID_4_" class="st0" points="-163.8,297.4 -162.8,299.5 -160.7,300.5 -162.8,301.8 -163.8,303.9 -165.1,301.8 
			-167.2,300.5 -165.1,299.5 		"/>
		<polygon id="XMLID_90_" class="st0" points="-152.8,290.9 -152.3,292 -151.3,292.5 -152.3,293.1 -152.8,294.3 -153.6,293.1 
			-154.6,292.5 -153.6,292 		"/>
	</g>
	<path id="XMLID_100_" class="st1" d="M-55.9,231.3h-87.7c-1.9,0-3.5-1.6-3.5-3.5l0,0c0-1.9,1.6-3.5,3.5-3.5h87.7
		c1.9,0,3.5,1.6,3.5,3.5l0,0C-52.4,229.8-53.9,231.3-55.9,231.3z"/>
	<g id="XMLID_89_">
		<path class="st1" d="M-108.2,331.3L-108.2,331.3L-108.2,331.3L-108.2,331.3z"/>
	</g>
	<g id="XMLID_1_">
		<path class="st1" d="M-108.1,331.5"/>
	</g>
	<g>
		<path id="XMLID_47_" class="st2" d="M-115.8,284c-0.4-2.1-1.4-4.1-3-5.6c-1.8-1.6-4.1-2.6-6.6-2.6c-1.9,0-3.7,0.5-5.3,1.6
			c-1.3,0.8-2.4,2-3.2,3.3c-0.3-0.1-0.7-0.1-1-0.1c-2.9,0-5.3,2.4-5.3,5.3c0,0.4,0,0.7,0.1,1.1c-1.9,1.4-3.1,3.6-3.1,6
			c0,1.9,0.7,3.8,2,5.3s3.1,2.4,5,2.5c0,0,0,0,0.1,0h6c0.5,0,0.9-0.4,0.9-0.9s-0.4-0.9-0.9-0.9h-5.9c-2.8-0.2-5.2-2.9-5.2-5.9
			c0-2,1.1-3.8,2.8-4.8c0.4-0.2,0.6-0.7,0.4-1.1c-0.1-0.4-0.2-0.8-0.2-1.2c0-1.9,1.6-3.5,3.5-3.5c0.4,0,0.8,0.1,1.2,0.2
			c0.5,0.2,1,0,1.2-0.5c1.3-2.8,4.1-4.5,7.1-4.5c4.1,0,7.5,3.1,7.8,7.1c0,0.4,0.4,0.8,0.8,0.8c3.1,0.5,5.4,3.4,5.4,6.6
			c0,3.4-2.7,6.4-6,6.7h-5.1c-0.5,0-0.9,0.4-0.9,0.9s0.4,0.9,0.9,0.9h5.1c0,0,0,0,0.1,0c2.1-0.2,4.1-1.1,5.6-2.7
			c1.5-1.6,2.3-3.7,2.3-5.8C-109.7,288.4-112.2,285-115.8,284z"/>
		<path id="XMLID_26_" class="st2" d="M-120.8,294c0.4-0.4,0.4-1,0-1.3l-5-5c-0.2-0.2-0.4-0.3-0.7-0.3s-0.5,0.1-0.7,0.3l-5,5
			c-0.4,0.4-0.4,1,0,1.3c0.2,0.2,0.4,0.3,0.7,0.3s0.5-0.1,0.7-0.3l3.4-3.4V306c0,0.5,0.4,0.9,0.9,0.9s0.9-0.4,0.9-0.9v-15.3l3.4,3.4
			C-121.7,294.4-121.2,294.4-120.8,294z"/>
	</g>
	<path id="XMLID_158_" class="st3" d="M-47,241.3h-161c-0.6,0-1-0.4-1-1v-15.1c0-0.6,0.4-1,1-1h161c0.6,0,1,0.4,1,1v15.1
		C-46,240.8-46.5,241.3-47,241.3z"/>
	<path id="XMLID_157_" class="st4" d="M-45.5,243.2v83h-26v-63.4c0-1-1.4-1.6-2.3-1.6h-107.5c-1,0-2.2,0.7-2.2,1.6v58.4l0,0v5h-25
		v-84h163C-45.5,242.2-45.5,243.2-45.5,243.2z"/>
	<g id="XMLID_154_">
		<path id="XMLID_155_" class="st2" d="M-49,223.2h-157c-2.4,0-4.4,1.6-4.4,4v96c0,2.4,2,5,4.4,5h31.6v-2H-206c-1,0-2.4-2.1-2.4-3
			v-96c0-1,1.4-2,2.4-2h157c1,0,2.6,1,2.6,2v96c0,1-1.7,3-2.6,3h-22.4v2H-49c2.3,0,4.6-2.7,4.6-5v-96
			C-44.5,224.8-46.7,223.2-49,223.2z"/>
	</g>
	<rect id="XMLID_153_" x="-208.6" y="241.3" class="st2" width="163" height="2.2"/>
	<circle id="XMLID_109_" class="st1" cx="-198" cy="233.5" r="3.3"/>
	<circle id="XMLID_105_" class="st1" cx="-188" cy="233.2" r="3.3"/>
	<circle id="XMLID_102_" class="st1" cx="-179" cy="233.2" r="3.3"/>
	<path id="XMLID_2_" class="st1" d="M-56.2,236.8h-87.7c-1.9,0-3.5-1.6-3.5-3.5l0,0c0-1.9,1.6-3.5,3.5-3.5h87.7
		c1.9,0,3.5,1.6,3.5,3.5l0,0C-52.7,235.3-54.2,236.8-56.2,236.8z"/>
	<g id="XMLID_11_">
		<circle class="st5" cx="-126.6" cy="327.6" r="12.1"/>
	</g>
	<path class="st5" d="M-71.6,259.2h-111.5c-1.3,0-2.3,0.3-2.3,1.5v60.1v5v2.4h2l0,0c0.1,0,0.2,0,0.3,0h38.5c0,0,0.1-0.3,0.1-0.4
		c0-0.2,0.1-0.5,0.1-0.7V327c0-0.2-0.1-0.5-0.1-0.7v-0.1h-38.9v-65h112v59.6v5.4h-37c0,0,0,0.2,0,0.3s0,1.7,0,1.7h36.8
		c0.1,0,0.1,0,0.2,0l0,0h2v-2.4v-5v-60.1C-69.5,259.5-70.4,259.2-71.6,259.2z"/>
	<g>
		<path class="st1" d="M-129.9,331.6c-0.1-0.1-0.1-0.1-0.1-0.2V331c0-0.2,0.1-0.4,0.3-0.5l2.6-2.6c0.6-0.5,1-0.9,1.2-1.2
			c0.2-0.3,0.3-0.7,0.3-1c0-0.5-0.1-0.8-0.4-1.1s-0.6-0.4-1.2-0.4c-0.5,0-0.9,0.1-1.1,0.4c-0.3,0.3-0.5,0.7-0.5,1.1
			c0,0.1-0.1,0.2-0.1,0.2c-0.1,0-0.1,0.1-0.2,0.1h-0.6c-0.1,0-0.1,0-0.2-0.1c-0.1-0.1-0.1-0.1-0.1-0.2c0-0.4,0.1-0.8,0.3-1.2
			c0.2-0.4,0.5-0.7,0.9-1c0.4-0.3,0.9-0.4,1.5-0.4c0.9,0,1.6,0.2,2,0.7s0.7,1.1,0.7,1.8c0,0.5-0.1,1-0.4,1.4
			c-0.2,0.4-0.6,0.8-1.1,1.3l-2.4,2.4h3.8c0.1,0,0.2,0,0.2,0.1c0,0,0.1,0.1,0.1,0.2v0.5c0,0.1,0,0.1-0.1,0.2
			c-0.1,0.1-0.1,0.1-0.2,0.1h-5.3C-129.8,331.6-129.8,331.6-129.9,331.6z"/>
	</g>
</g>
</svg>
